<?xml version="1.0" standalone="no"?>
<!DOCTYPE svg PUBLIC "-//W3C//DTD SVG 1.1//EN" "http://www.w3.org/Graphics/SVG/1.1/DTD/svg11.dtd" >
<!--
2013-9-30: Created.
-->
<svg>
<metadata>
Created by iconfont
</metadata>
<defs>

<font id="iconfont" horiz-adv-x="1024" >
  <font-face
    font-family="iconfont"
    font-weight="500"
    font-stretch="normal"
    units-per-em="1024"
    ascent="896"
    descent="-128"
  />
    <missing-glyph />
    
    <glyph glyph-name="multiply2" unicode="&#58895;" d="M914.19268801 103.58587060000002L619.11400153 383.71078986c-0.48482749 0.45278641-0.98736218 0.87859177-1.48230726 1.31535845l270.79262155 256.81019513c28.52556592 26.62166959 28.52556592 69.80167419 0 96.45791364-28.52809552 26.65539652-74.76546533 26.65539652-103.32644485 0l-273.9907966-259.84226431L240.76049417 748.79857297c-27.16636212 27.19924612-71.26121585 27.19924612-98.46383533 0-27.19924612-27.20008987-27.19924612-71.29747321 0-98.49756225l261.03030305-261.02524384c-0.35413522-0.33895762-0.71670136-0.66442429-1.06493445-1.01265738L117.74836482 103.75534983c-26.27933862-26.28186822-26.27933862-68.91970989-1e-8-95.2007352 26.28271198-26.2784957 68.91970989-26.2784957 95.20157812 0l284.50775968 284.51197594c3.80610682 3.80610682 7.04306882 7.96213257 9.74629797 12.35424849 3.15011425-5.37104553 7.14340667-10.42589988 12.01444794-14.974847l295.08458862-280.12154672c27.57530401-25.77427515 72.32024817-25.77427515 99.89049298 0C941.76967872 36.06077811 941.76967872 77.81412505000003 914.19268801 103.58587060000002z"  horiz-adv-x="1026" />

    
    <glyph glyph-name="radio" unicode="&#58975;" d="M509.91276931 555.64266587c93.55150223 0 169.38549041-75.83785057 169.38549042-169.39398767 0-93.55150223-75.83553314-169.38549041-169.38549042-169.38549041s-169.39398765 75.83553314-169.39398765 169.38549041C340.51878166 479.80249787 416.36281204 555.64266587 509.91276931 555.64266587L509.91276931 555.64266587zM512.00231742 723.19120789c45.81633567 0 90.23062705-8.96149636 132.01386453-26.63266182 40.38196564-17.08176613 76.6644001-41.54454232 107.83149718-72.71241189s55.63296318-67.4479866 72.71318437-107.83149719C842.23280143 474.23294449 851.19275283 429.81633567 851.19275283 384c0-45.81479073-8.9599514-90.22830963-26.63188933-132.01077461-17.08176613-40.38351059-41.54608726-76.66594505-72.71472932-107.83226967-31.16786957-31.17018699-67.44721413-55.63219071-107.83226966-72.71395683-41.7816925-17.67348289-86.19830132-26.63343429-132.01309204-26.6334343-45.8155632 0-90.22908211 8.9599514-132.01386452 26.6334343-40.38351059 17.08176613-76.66594505 41.54608726-107.83381462 72.71395683s-55.63219071 67.44721413-72.71395684 107.83226967C181.76642608 293.77091788999996 172.80492973 338.18598175 172.80492973 384c0 45.81633567 8.96149636 90.23062705 26.63420677 132.01309204 17.08331108 40.38351059 41.54608726 76.66594505 72.71395684 107.83226967 31.16786957 31.16941452 67.44875908 55.63219071 107.83381462 72.71241187 41.78246498 17.67271042 86.19830132 26.63420677 132.01386452 26.63420679M512.00231742 777.27072143C294.80286789 777.27072143 118.72618866 601.19867706 118.72618866 383.99922752c0-217.19481468 176.07667923-393.27072143 393.27612877-393.27072144s393.27149392 176.07590676 393.27149391 393.27072144C905.27381134 601.19867706 729.20176697 777.27072143 512.00231742 777.27072143L512.00231742 777.27072143 512.00231742 777.27072143z"  horiz-adv-x="1024" />

    
    <glyph glyph-name="multiply" unicode="&#58972;" d="M271.70165834 668.0359791l-43.69389831-43.69389829 240.31945713-240.31945711L228.00776003 143.70165834l43.69389831-43.69389831 240.31945711 240.31945713 240.31945712-240.31945713 43.69389829 43.69389831L555.71652199 384.02111545l240.27571798 240.27571797-43.69389831 43.69389828L512.02111545 427.71652199 271.70165834 668.0359791z"  horiz-adv-x="1024" />

    
    <glyph glyph-name="text" unicode="&#59383;" d="M775.67187475-11.5078125L248.32812525-11.5078125c-72.50976588 0-131.83593775 59.32617188-131.83593775 131.83593775L116.4921875 647.67187475c0 72.50976588 59.32617188 131.83593775 131.83593775 131.83593775l527.34375026 0c72.50976588 0 131.83593775-59.32617188 131.83593777-131.83593775l0-527.34375026C907.5078125 47.81835937000005 848.18164063-11.5078125 775.67187475-11.5078125zM248.32812525 713.589844C212.07324193 713.589844 182.410156 683.92675807 182.410156 647.67187475l0-527.34375026c0-36.25488256 29.66308594-65.9179685 65.91796849-65.91796849l527.34375026 0c36.25488256 0 65.9179685 29.66308594 65.91796849 65.91796849L841.589844 647.67187475c0 36.25488256-29.66308594 65.9179685-65.91796849 65.91796849L248.32812525 713.589844zM676.79492162 515.8359377500001L347.20507838 515.8359377500001C327.42968775 515.8359377500001 314.24609375 529.0195309999999 314.24609375 548.79492162s13.18359399 32.95898463 32.95898463 32.95898463l329.589844 0c19.77539063 0 32.95898463-13.18359399 32.95898465-32.95898463S696.57031225 515.8359377500001 676.79492162 515.8359377500001zM347.20507838 482.87695313C327.42968775 482.87695313 314.24609375 496.06054713 314.24609375 515.8359377500001L314.24609375 548.79492162c0 19.77539063 13.18359399 32.95898463 32.95898463 32.95898463s32.95898463-13.18359399 32.95898464-32.95898463l0-32.95898464C380.16406225 496.06054713 366.980469 482.87695313 347.20507838 482.87695313zM676.79492162 482.87695313c-19.77539063 0-32.95898463 13.18359399-32.95898464 32.95898462L643.83593775 548.79492162c0 19.77539063 13.18359399 32.95898463 32.95898464 32.95898463s32.95898463-13.18359399 32.95898464-32.95898463l0-32.95898464C709.75390625 496.06054713 696.57031225 482.87695313 676.79492162 482.87695313zM512 186.24609375c-19.77539063 0-32.95898463 13.18359399-32.95898463 32.95898463L479.04101537 548.79492162c0 19.77539063 13.18359399 32.95898463 32.95898463 32.95898463s32.95898463-13.18359399 32.95898463-32.95898463l0-329.589844C544.95898463 199.42968774999997 531.77539063 186.24609375 512 186.24609375zM544.95898463 186.24609375l-65.91796849 0c-19.77539063 0-32.95898463 13.18359399-32.95898464 32.95898463s13.18359399 32.95898463 32.95898464 32.95898464l65.91796849 0c19.77539063 0 32.95898463-13.18359399 32.95898464-32.95898464S564.73437525 186.24609375 544.95898463 186.24609375z"  horiz-adv-x="1024" />

    
    <glyph glyph-name="alignbottom" unicode="&#59825;" d="M31.9995425 531.55555557l0 68.57142844q0 13.91999999 10.14857156 24.13714312t24.13714313 10.14857157l891.42857156 0q13.91999999 0 24.13714312-10.14857157t10.14857158-24.13714312l0-68.57142844q0-13.91999999-10.14857158-24.13714313t-24.13714312-10.14857156l-891.42857156 0q-13.91999999 0-24.13714313 10.14857156t-10.14857156 24.13714313zM237.71382875 325.84127026l1e-8 68.57142844q0 13.91999999 10.14857155 24.13714312t24.13714312 10.14857155l480 1e-8q13.91999999 0 24.13714313-10.14857156t10.14857158-24.13714312l-1e-8-68.57142844q0-13.91999999-10.14857157-24.13714313t-24.13714314-10.14857156l-479.99999999 0q-13.91999999 0-24.13714312 10.14857156t-10.14857156 24.13714313zM100.57097189 120.12698401l-1e-8 68.57142845q0 13.91999999 10.14857157 24.13714311t24.13714311 10.14857156l754.28571469 0q13.91999999 0 24.13714313-10.14857156t10.14857156-24.13714313l0-68.57142843q0-13.91999999-10.14857157-24.13714313t-24.13714312-10.14857156l-754.28571469 0q-13.91999999 0-24.13714311 10.14857156t-10.14857156 24.13714313zM306.28525719-85.58730129000003l0 68.57142842q0 13.91999999 10.14857156 24.13714313t24.13714313 10.14857156l342.85714312 0q13.91999999 0 24.13714313-10.14857156t10.14857156-24.13714313l0-68.57142845q0-13.91999999-10.14857156-24.13714311t-24.13714313-10.14857156l-342.85714312 0q-13.91999999 0-24.13714313 10.14857156t-10.14857156 24.13714314z"  horiz-adv-x="1025" />

    
    <glyph glyph-name="copy" unicode="&#60004;" d="M865.10675322 609.9600735q17.62708953 0 29.99994967-12.37286092t12.37286093-29.99994969l0-536.72226556q0-17.62708953-12.37286093-29.99994967t-29.99994967-12.37286093l-423.72810448 0q-17.62708953 0-29.99994968 12.37286093t-12.37286092 29.99994967l0 127.11843103-240.11259212 1e-8q-17.62708953 0-29.99994969 12.37286092t-12.37286092 29.99994968l0 296.60967267q0 17.62708953 8.81354476 38.8699918t21.18640492 33.55926585l180.11269278 180.11269277q12.37286092 12.37286092 33.55926583 21.18640491t38.8699918 8.81354475l183.61551157 0q17.62708953 0 29.99994969-12.37286092t12.37286092-29.99994967l0-144.80201715q29.99994967 17.62708953 56.49708055 17.62708952l183.61551158 0zM624.99416109 515.94893171l-131.9771804-131.97718039 131.9771804 0 0 131.9771804zM342.50875837 685.44017335l-131.9771804-131.9771804 131.9771804 0 0 131.9771804zM429.00578859 399.84743105l139.49129196 139.49129196 0 183.61551158-169.49124164 0 0-183.61551158q0-17.62708953-12.37286093-29.99994968t-29.99994967-12.37286092l-183.61551158 0 0-282.48540273 225.98832217 0 0 112.99416109q0 17.62708953 8.81354477 38.8699918t21.18640492 33.55926585zM850.98248328 44.989268049999964l0 508.4737249-169.49124165 0 0-183.61551158q0-17.62708953-12.37286092-29.99994967t-29.99994967-12.37286093l-183.61551159 0 0-282.48540272 395.47956383 0z"  horiz-adv-x="1024" />

    
    <glyph glyph-name="edit" unicode="&#59032;" d="M770.204 175.886c0-79.544-64.535-144.079-144.079-144.079L209.896 31.807c-79.543 0-144.079 64.535-144.079 144.079L65.817 592.114c0 79.544 64.536 144.079 144.079 144.079l416.229 0c20.011 0 40.022-4.002 58.532-12.507 4.502-2.001 8.004-6.503 9.005-11.506 1.001-5.503-0.5-10.506-4.503-14.508l-24.513-24.514c-4.503-4.502-10.506-6.003-16.009-4.002-7.505 2.001-15.009 3.001-22.513 3.001L209.896 672.157c-44.024 0-80.044-36.02-80.044-80.044l0-416.229c0-44.024 36.02-80.044 80.044-80.044l416.229 0c44.024 0 80.044 36.02 80.044 80.044L706.169 238.92c0 4.003 1.501 8.005 4.502 11.007l32.018 32.018c5.003 5.002 11.507 6.003 17.51 3.502 6.004-2.502 10.006-8.005 10.006-14.509L770.205 175.886zM866.257 496.062 530.072 159.877 385.993 159.877 385.993 303.956l336.185 336.185L866.257 496.062zM568.093 265.936l-76.041 76.041-58.032-58.031 0-28.016 48.026 0 0-48.026 28.016 0L568.093 265.936zM713.673 567.601 538.577 392.505c-4.503-4.503-5.003-12.007-0.5-16.509 4.502-4.503 12.006-4.003 16.509 0.5l175.096 175.096c4.503 4.503 5.003 12.007 0.501 16.509C725.68 572.604 718.176 572.104 713.673 567.601zM898.274 528.079 754.195 672.158l46.025 46.025c18.51 18.51 49.527 18.51 68.037 0l76.042-76.042c18.51-18.51 18.51-49.527 0-68.037L898.274 528.079z"  horiz-adv-x="1024" />

    
    <glyph glyph-name="plus" unicode="&#58936;" d="M798.0939 416.95353L542.05348 416.95353 542.05348 672.99395c0 17.676591-14.328333 32.004925-32.004925 32.004925-17.676591 0-32.004925-14.328333-32.004925-32.004925l0-256.039397L222.004233 416.954553c-17.676591 0-32.004925-14.331403-32.004925-32.001855 0-17.679661 14.328333-32.011064 32.004925-32.011064l256.039397 0 0-256.039397c0-17.670451 14.328333-32.001855 32.004925-32.001855 17.676591 0 32.004925 14.331403 32.004925 32.001855L542.05348 352.94061l256.039397 0c17.676591 0 32.004925 14.331403 32.004925 32.011064C830.098825 402.622126 815.770492 416.95353 798.0939 416.95353z"  horiz-adv-x="1024" />

    
    <glyph glyph-name="cut" unicode="&#59082;" d="M685.8490625 764.4046875c5.6784375 7.8628125 15.2878125 11.79375 24.46125001 10.92 9.609375-1.3096875 17.9090625-6.98906249 22.27687499-15.28875l27.9553125-55.9115625c2.184375-3.9309375 3.058125-8.29968749 3.058125-12.6675 0-4.80468749-1.3096875-9.609375-3.495-13.5403125l-169.0434375-301.396875 28.8290625-48.04875c0.87375-1.7475 1.7465625-3.495 2.18437501-5.2415625 13.5403125 3.9309375 27.9553125 5.6784375 42.36937499 4.3678125 44.990625-3.9309375 87.7978125-34.070625 118.3753125-82.119375 23.5875-37.12875 36.691875-79.9359375 36.691875-120.995625 0-39.313125-11.79375-72.51-34.0715625-96.97125-23.1496875-24.898125-56.3475-37.565625-90.418125-34.5084375-44.55375 3.9309375-87.7978125 34.070625-118.3753125 81.6825-23.5875 37.12875-36.691875 80.371875-36.691875 121.4325 0 24.46124999 4.80468749 46.738125 13.5403125 65.95781251-3.9309375 2.6203125-6.988125 5.6784375-9.609375 9.60937499L512 324.97687499999995 480.1128125 271.6875c-2.6203125-3.9309375-5.6784375-6.9890625-9.609375-9.609375 8.735625-19.2196875 13.54031251-41.4965625 13.5403125-65.9578125 0-41.05968751-13.104375-84.30375-36.691875-121.4325-30.5765625-47.611875-73.8196875-77.7515625-118.3753125-81.6825-34.070625-3.0571875-67.2675 9.609375-89.98125001 34.5084375-22.71468751 24.46125-34.5084375 57.658125-34.50843749 96.97124999 0 41.05968751 13.104375 83.866875 36.691875 120.99562501 30.1396875 48.04875 73.38375 78.1884375 118.3753125 82.119375 14.415 1.3096875 28.8290625-0.436875 42.37031249-4.3678125 0.436875 1.7465625 1.3096875 3.4940625 2.18343751 5.2415625l28.8290625 48.04875-169.0434375 301.396875c-2.1834375 3.9309375-3.495 8.735625-3.495 13.5403125 0 4.36781249 0.87375 8.735625 3.05812499 12.6675l27.95531251 55.9115625c4.3678125 8.2996875 12.6675 13.978125 22.27781249 15.28875 9.1725 0.87375 18.78187499-3.058125 24.46125001-10.92L512 542.94375 685.8490625 764.4046875zM300.1484375 208.35000000000002c-17.0353125-26.6446875-25.7709375-57.658125-25.7709375-83.866875 0-20.0934375 5.2415625-38.0025 15.7246875-49.359375 24.46125-26.6446875 68.578125-10.04625 98.2809375 37.12875 17.03625 26.6446875 25.771875 57.2221875 25.771875 83.866875 0 20.0934375-5.2425 38.0025-15.7246875 49.359375C373.97 272.124375 329.8521875 255.52499999999998 300.1484375 208.35000000000002zM625.5696875 245.47875c-10.483125-11.356875-15.72375-29.2659375-15.72374999-49.359375 0-26.6446875 8.735625-57.2221875 25.77093749-83.866875 29.7028125-47.175 73.8196875-63.7734375 98.281875-37.12875 10.483125 11.356875 15.72375 29.2659375 15.72375 49.359375 0 26.20874999-8.735625 57.2221875-25.7709375 83.866875C694.14875 255.52500000999999 650.0309375 272.124375 625.5696875 245.47875zM567.9115625 425.8790625l-251.600625 321.4903125-27.9553125-55.91156251L476.61875 355.99125000000004l49.35843751 0 41.9334375-69.88875 3.49499999 3.9309375c1.3096875 0.87375 1.7465625 1.7475 2.62125 3.0571875 3.4940625 3.495 6.988125 6.1153125 10.483125 9.609375l11.356875 11.356875-41.9334375 69.88875L567.9115625 425.8790625zM481.424375 328.03499999999997l-4.805625 0c-10.04625 0-19.21875 5.6784375-24.46125 14.4140625l-3.495 6.1153125-20.529375-34.5075 11.356875-11.356875c3.495-3.4940625 6.9890625-6.1153125 10.0471875-9.609375 1.3096875-1.3096875 1.7465625-2.184375 2.6203125-3.0571875l3.9309375-3.9309375L481.424375 328.03499999999997zM512 439.8571875c15.28875 0 27.9553125-12.6675 27.9553125-27.954375 0-15.28875-12.6675-27.95625-27.9553125-27.95625s-27.9553125 12.6675-27.9553125 27.95625C484.0446875 427.1896875 496.71125 439.8571875 512 439.8571875zM707.6890625 747.369375L529.4721875 520.23l60.279375-77.3146875c1.7475-1.310625 2.184375-3.495 3.058125-5.679375l142.835625 254.221875L707.6890625 747.369375z"  horiz-adv-x="1024" />

    
    <glyph glyph-name="paste" unicode="&#59272;" d="M638.98209636 680.63085938l-98.87695313-1e-8 0 49.43847657c0 27.19116211-22.24731445 49.43847656-49.43847656 49.43847656l-98.87695313 0c-27.19116211 0-49.43847656-22.24731445-49.43847656-49.43847656l0-49.43847657-98.87695312 0 0-98.87695312 395.5078125 0 0 98.87695313zM490.66666667 680.63085938l-98.87695313-1e-8 1e-8 49.33959961c0.02471924 0.02471924 0.04943848 0.04943848 0.09887695 0.09887696l98.70391846 0c0.02471924-0.02471924 0.07415771-0.04943848 0.09887695-0.09887696l0-49.33959961zM737.85904948 532.31542969l0 123.5961914c0 13.59558106-11.12365723 24.71923828-24.71923828 24.71923829l-49.43847656 0 0-49.43847657 24.71923828 0 0-98.87695312-148.31542969 0-148.31542968-148.31542969-1e-8-197.75390625-197.75390624 0-1e-8 444.94628906 24.71923829 0 0 49.43847656-49.43847657 0c-13.59558106 0-24.71923828-11.12365723-24.71923828-24.71923828l0-494.38476562c0-13.59558106 11.12365723-24.71923828 24.71923828-24.71923828l222.47314453 0 0-148.31542969 494.38476563 0 0 543.82324219-148.31542969 0zM540.10514323 462.40942383l0-78.40942383-78.40942383 0 78.40942383 78.40942383zM836.73600261 37.930664060000026l-395.5078125 0 0 296.63085938 148.31542969 0 0 148.31542968 247.19238281 0 0-444.94628906z"  horiz-adv-x="1024" />

    
    <glyph glyph-name="minus2" unicode="&#58896;" d="M116.4921875 468.04541016l791.015625 0 0-163.14697266-791.015625 0 0 163.14697266Z"  horiz-adv-x="1024" />

    
    <glyph glyph-name="refer-window" unicode="&#59027;" d="M332.20200342 587.97866485l549.59667363 0c19.86932901 0 35.97560859 16.10717959 35.9756086 35.9756086s-16.10627959 35.97560859-35.9756086 35.97560859L332.20200342 659.9298820399999c-19.86842901 0-35.97560859-16.10717959-35.9756086-35.97560859S312.33267441 587.97866485 332.20200342 587.97866485zM881.79777705 416.58906681L332.20200342 416.58906681c-19.86842901 0-35.97560859-16.10717959-35.9756086-35.9756086s16.10717959-35.97560859 35.9756086-35.97560859l549.59667363 0c19.86932901 0 35.97560859 16.10717959 35.9756086 35.97560859S901.66710606 416.58906681 881.79777705 416.58906681zM881.79777705 173.73842021999997L332.20200342 173.73842021999997c-19.86842901 0-35.97560859-16.10627959-35.9756086-35.97560859s16.10717959-35.97560859 35.9756086-35.9756086l549.59667363 0c19.86932901 0 35.97560859 16.10627959 35.9756086 35.9756086S901.66710606 173.73842021999997 881.79777705 173.73842021999997zM167.71792344 623.65477647m-35.9756086 0a35.15625 35.15625 0 1 1 71.95121719 0 35.15625 35.15625 0 1 1-71.95121719 0ZM167.71792344 380.61345821m-35.9756086 0a35.15625 35.15625 0 1 1 71.95121719 0 35.15625 35.15625 0 1 1-71.95121719 0ZM167.71792344 143.18613428000003m-35.9756086 0a35.15625 35.15625 0 1 1 71.95121719 0 35.15625 35.15625 0 1 1-71.95121719 0Z"  horiz-adv-x="1024" />

    
    <glyph glyph-name="delete-column" unicode="&#59123;" d="M320 448l0-128L128 320 64 320l0-128 0-256 62.976 0L128 256l192 0 0-320 64 0 256 0 64 0 0 320 192 0 0-320 64 0 0 320L960 320l-64 0-192 0L704 448 320 448zM800 717.248l105.344 105.344c12.48 12.48 32.768 12.48 45.248 0s12.48-32.768 0-45.248L845.248 672l105.344-105.344c12.48-12.48 12.48-32.768 0-45.248s-32.768-12.48-45.248 0L800 626.752l-105.344-105.344c-12.48-12.48-32.768-12.48-45.248 0C643.136 527.616 640 535.808 640 544s3.136 16.384 9.344 22.656L754.752 672l-105.344 105.344C643.136 783.616 640 791.808 640 800s3.136 16.384 9.344 22.656c12.48 12.48 32.768 12.48 45.248 0L800 717.248z"  horiz-adv-x="1024" />

    
    <glyph glyph-name="delete-row" unicode="&#59124;" d="M576 192L448 192l0-192 0-64L320-64 64-64l0 62.976L384 0l0 192L64 192l0 64L64 512 64 576l320 0L384 768 64 768 64 832l320 0 64 0 0-64 0-192 128 0L576 192zM845.248 672l105.344 105.344c12.48 12.48 12.48 32.768 0 45.248s-32.768 12.48-45.248 0L800 717.248l-105.344 105.344c-12.48 12.48-32.768 12.48-45.248 0s-12.48-32.768 0-45.248L754.752 672l-105.344-105.344c-12.48-12.48-12.48-32.768 0-45.248C655.616 515.136 663.808 512 672 512s16.384 3.136 22.656 9.344L800 626.752l105.344-105.344C911.616 515.136 919.808 512 928 512s16.384 3.136 22.656 9.344c12.48 12.48 12.48 32.768 0 45.248L845.248 672z"  horiz-adv-x="1024" />

    
    <glyph glyph-name="insert-column" unicode="&#59219;" d="M653.184 182.39999999999998c12.864 12.864 33.6 12.864 46.528 0 6.4-6.4 3.776-14.72 3.776-23.232 0-8.384-3.264-16.768-9.6-23.104L569.92 9.600000000000023c-0.128-0.128-0.32-0.192-0.512-0.32-2.88-2.88-9.536-5.184-13.312-6.784-3.456-1.344-0.64-1.856-4.096-2.112C551.232 0.38400000000001455 550.656 0 549.952 0c-0.512 0-0.896 0.256-1.344 0.256-3.84 0.192-5.76 0.896-9.344 2.24-3.264 1.344-6.016 3.52-8.64 5.76-0.64 0.512-1.472 0.768-2.048 1.344l-137.344 126.4c-12.864 12.736-6.976 33.6 5.888 46.4 12.8 12.864 33.6 12.864 46.464 0l105.472-100.352L653.184 182.39999999999998zM384 832l0-576 320 0L704 832 384 832zM128 192l0-256L64-64l0 256 0 64 0 0 64 0 128 0 64 0 0-64 0-256L257.024-64 256 192 128 192M832 192l0-256-64 0 0 256 0 64 0 0 64 0 128 0 64 0 0-64 0-256-62.976 0L960 192 832 192"  horiz-adv-x="1024" />

    
    <glyph glyph-name="insert-row" unicode="&#59220;" d="M310.336 242.81600000000003c12.864-12.864 12.864-33.6 0-46.528-6.4-6.4-14.72-3.776-23.168-3.776s-16.832 3.264-23.168 9.6L137.6 326.08000000000004C137.472 326.20799999999997 137.408 326.4 137.344 326.592 134.464 329.408 132.096 336.12800000000004 130.496 339.904 129.152 343.29600000000005 128.64 340.48 128.384 344 128.384 344.76800000000003 128 345.34400000000005 128 346.048c0 0.512 0.256 0.896 0.256 1.344 0.192 3.84 0.896 5.76 2.24 9.344 1.344 3.264 3.52 6.016 5.76 8.64C136.768 366.08000000000004 137.024 366.91200000000003 137.6 367.48800000000006l126.336 137.344c12.8 12.864 33.6 6.976 46.4-5.888 12.864-12.8 12.864-33.6 0-46.464L210.048 347.00800000000004 310.336 242.81600000000003zM960 512L384 512l0-320 576 0L960 512zM320 768L64 768 64 832l256 0 64 0 0 0 0-64 0-128 0-64L320 576 64 576 64 638.976 320 640 320 768M320 64L64 64l0 64 256 0 64 0 0 0 0-64 0-128 0-64L320-128 64-128l0 62.976L320-64 320 64"  horiz-adv-x="1024" />

    
    <glyph glyph-name="mergecell" unicode="&#59264;" d="M512 416c0-5.376-1.984-10.112-5.952-14.08L354.048 261.952C350.08 257.91999999999996 345.344 256 339.968 256s-10.048 1.92-14.08 5.952C321.92 265.856 320 270.65599999999995 320 275.96799999999996L320 384 224 384C206.336 384 192 398.336 192 416S206.336 448 224 448L320 448 320 556.0319999999999c0 5.376 1.92 10.048 5.952 14.08C329.92 574.0160000000001 334.656 576 339.968 576s10.048-1.984 14.08-5.952L506.048 430.08C510.016 426.048 512 421.376 512 416zM576 416c0-5.376 1.984-10.112 5.952-14.08l152-140.032C737.92 257.91999999999996 742.656 256 748.032 256s10.048 1.92 14.08 5.952C766.08 265.856 768 270.65599999999995 768 275.96799999999996L768 384l96 0C881.664 384 896 398.336 896 416S881.664 448 864 448L768 448 768 556.0319999999999c0 5.376-1.92 10.048-5.952 14.08C758.08 574.0160000000001 753.344 576 748.032 576s-10.048-1.984-14.08-5.952L581.952 430.08C577.984 426.048 576 421.376 576 416zM448 768l0-128 64 0L512 768c0 35.392-28.672 64-64 64l0 0L128 832C92.672 832 64 803.392 64 768l0-704c0-35.392 28.672-64 64-64l320 0c35.328 0 64 28.608 64 64l0 128L448 192l0-128L128 64 128 768 448 768M640 768l320 0 0-704-320 0 0 128L576 192l0-128c0-35.392 28.608-64 64-64l320 0c35.392 0 64 28.608 64 64L1024 768c0 35.392-28.608 64-64 64l-320 0 0 0C604.608 832 576 803.392 576 768l0-128 64 0L640 768"  horiz-adv-x="1024" />

    
    <glyph glyph-name="separatecell" unicode="&#59373;" d="M197.952 430.08l152 140.032C353.92 574.016 358.656 576 364.032 576s10.048-1.984 14.08-5.952C382.08 566.08 384 561.344 384 556.032L384 448l96 0C497.664 448 512 433.664 512 416S497.664 384 480 384L384 384l0-108.032c0-5.376-1.92-10.112-5.952-14.08C374.08 257.92 369.344 256 364.032 256S353.92 257.92 349.952 261.952L197.952 401.92C193.984 405.888 192 410.624 192 416S193.984 426.048 197.952 430.08zM890.048 430.08l-152 140.032C734.08 574.016 729.344 576 723.968 576s-10.048-1.984-14.08-5.952C705.92 566.08 704 561.344 704 556.032L704 448 608 448C590.336 448 576 433.664 576 416S590.336 384 608 384L704 384l0-108.032c0-5.376 1.92-10.112 5.952-14.08C713.92 257.92 718.656 256 723.968 256s10.048 1.92 14.08 5.952l152 140.032C894.016 405.888 896 410.624 896 416S894.016 426.048 890.048 430.08zM448 768l0-128 64 0L512 768c0 35.392-28.608 64-64 64l0 0L128 832C92.608 832 64 803.392 64 768l0-704c0-35.392 28.608-64 64-64l320 0c35.392 0 64 28.608 64 64l0 128L448 192l0-128L128 64 128 768 448 768M640 768l320 0 0-704-320 0 0 128L576 192l0-128c0-35.392 28.608-64 64-64l320 0c35.392 0 64 28.608 64 64L1024 768c0 35.392-28.608 64-64 64l-320 0 0 0C604.608 832 576 803.392 576 768l0-128 64 0L640 768"  horiz-adv-x="1024" />

    
    <glyph glyph-name="borderbottom" unicode="&#59070;" d="M213.333333 256 128 256 128 170.666667 213.333333 170.666667M128 0 896 0 896 85.333333 128 85.333333M213.333333 426.666667 128 426.666667 128 341.333333 213.333333 341.333333M810.666667 512 896 512 896 597.333333 810.666667 597.333333M810.666667 682.666667 896 682.666667 896 768 810.666667 768M213.333333 597.333333 128 597.333333 128 512 213.333333 512M810.666667 170.666667 896 170.666667 896 256 810.666667 256M810.666667 341.333333 896 341.333333 896 426.666667 810.666667 426.666667M725.333333 768 640 768 640 682.666667 725.333333 682.666667M554.666667 768 469.333333 768 469.333333 682.666667 554.666667 682.666667M725.333333 426.666667 640 426.666667 640 341.333333 725.333333 341.333333M554.666667 597.333333 469.333333 597.333333 469.333333 512 554.666667 512M213.333333 768 128 768 128 682.666667 213.333333 682.666667M554.666667 426.666667 469.333333 426.666667 469.333333 341.333333 554.666667 341.333333M384 768 298.666667 768 298.666667 682.666667 384 682.666667M554.666667 256 469.333333 256 469.333333 170.666667 554.666667 170.666667M384 426.666667 298.666667 426.666667 298.666667 341.333333 384 341.333333 384 426.666667Z"  horiz-adv-x="1024" />

    
    <glyph glyph-name="borderleft" unicode="&#59074;" d="M640 682.666667 725.333333 682.666667 725.333333 768 640 768M640 341.333333 725.333333 341.333333 725.333333 426.666667 640 426.666667M810.666667 0 896 0 896 85.333333 810.666667 85.333333M810.666667 341.333333 896 341.333333 896 426.666667 810.666667 426.666667M810.666667 682.666667 896 682.666667 896 768 810.666667 768M810.666667 170.666667 896 170.666667 896 256 810.666667 256M640 0 725.333333 0 725.333333 85.333333 640 85.333333M810.666667 512 896 512 896 597.333333 810.666667 597.333333M128 0 213.333333 0 213.333333 768 128 768M298.666667 341.333333 384 341.333333 384 426.666667 298.666667 426.666667M298.666667 682.666667 384 682.666667 384 768 298.666667 768M298.666667 0 384 0 384 85.333333 298.666667 85.333333M469.333333 341.333333 554.666667 341.333333 554.666667 426.666667 469.333333 426.666667M469.333333 512 554.666667 512 554.666667 597.333333 469.333333 597.333333M469.333333 682.666667 554.666667 682.666667 554.666667 768 469.333333 768M469.333333 170.666667 554.666667 170.666667 554.666667 256 469.333333 256M469.333333 0 554.666667 0 554.666667 85.333333 469.333333 85.333333 469.333333 0Z"  horiz-adv-x="1024" />

    
    <glyph glyph-name="border-none" unicode="&#59075;" d="M640 682.666667L725.333333 682.666667 725.333333 768 640 768M640 341.33333300000004L725.333333 341.33333300000004 725.333333 426.666667 640 426.666667M640 0L725.333333 0 725.333333 85.33333300000004 640 85.33333300000004M469.333333 682.666667L554.666667 682.666667 554.666667 768 469.333333 768M810.666667 682.666667L896 682.666667 896 768 810.666667 768M469.333333 512L554.666667 512 554.666667 597.333333 469.333333 597.333333M810.666667 512L896 512 896 597.333333 810.666667 597.333333M810.666667 0L896 0 896 85.33333300000004 810.666667 85.33333300000004M810.666667 341.33333300000004L896 341.33333300000004 896 426.666667 810.666667 426.666667M810.666667 170.66666699999996L896 170.66666699999996 896 256 810.666667 256M469.333333 341.33333300000004L554.666667 341.33333300000004 554.666667 426.666667 469.333333 426.666667M128 682.666667L213.333333 682.666667 213.333333 768 128 768M128 512L213.333333 512 213.333333 597.333333 128 597.333333M128 341.33333300000004L213.333333 341.33333300000004 213.333333 426.666667 128 426.666667M128 170.66666699999996L213.333333 170.66666699999996 213.333333 256 128 256M128 0L213.333333 0 213.333333 85.33333300000004 128 85.33333300000004M469.333333 0L554.666667 0 554.666667 85.33333300000004 469.333333 85.33333300000004M469.333333 170.66666699999996L554.666667 170.66666699999996 554.666667 256 469.333333 256M298.666667 0L384 0 384 85.33333300000004 298.666667 85.33333300000004M298.666667 341.33333300000004L384 341.33333300000004 384 426.666667 298.666667 426.666667M298.666667 682.666667L384 682.666667 384 768 298.666667 768 298.666667 682.666667Z"  horiz-adv-x="1024" />

    
    <glyph glyph-name="border-top" unicode="&#59079;" d="M640 341.33333300000004L725.333333 341.33333300000004 725.333333 426.666667 640 426.666667M810.666667 0L896 0 896 85.33333300000004 810.666667 85.33333300000004M469.333333 512L554.666667 512 554.666667 597.333333 469.333333 597.333333M640 0L725.333333 0 725.333333 85.33333300000004 640 85.33333300000004M810.666667 170.66666699999996L896 170.66666699999996 896 256 810.666667 256M128 682.666667L896 682.666667 896 768 128 768M810.666667 341.33333300000004L896 341.33333300000004 896 426.666667 810.666667 426.666667M810.666667 512L896 512 896 597.333333 810.666667 597.333333M469.333333 170.66666699999996L554.666667 170.66666699999996 554.666667 256 469.333333 256M128 512L213.333333 512 213.333333 597.333333 128 597.333333M128 341.33333300000004L213.333333 341.33333300000004 213.333333 426.666667 128 426.666667M128 0L213.333333 0 213.333333 85.33333300000004 128 85.33333300000004M128 170.66666699999996L213.333333 170.66666699999996 213.333333 256 128 256M469.333333 0L554.666667 0 554.666667 85.33333300000004 469.333333 85.33333300000004M469.333333 341.33333300000004L554.666667 341.33333300000004 554.666667 426.666667 469.333333 426.666667M298.666667 341.33333300000004L384 341.33333300000004 384 426.666667 298.666667 426.666667M298.666667 0L384 0 384 85.33333300000004 298.666667 85.33333300000004 298.666667 0Z"  horiz-adv-x="1024" />

    
    <glyph glyph-name="dot" unicode="&#58974;" d="M110.98112 385.25952m-110.98112 0a21.676 21.676 0 1 0 221.96224 0 21.676 21.676 0 1 0-221.96224 0ZM512.93184 385.25952m-110.98112 0a21.676 21.676 0 1 0 221.96224 0 21.676 21.676 0 1 0-221.96224 0ZM914.87744 385.25952m-110.98112 0a21.676 21.676 0 1 0 221.96224 0 21.676 21.676 0 1 0-221.96224 0Z"  horiz-adv-x="1026" />

    
    <glyph glyph-name="aligntop" unicode="&#58886;" d="M32 786.13333331l0 68.58q0 13.92 10.17 24.12t24.12 10.17l891.42 0q13.92 0 24.12-10.17t10.17-24.12l0-68.58q0-13.92-10.17-24.12t-24.12000001-10.17l-891.41999998 0q-13.92 0-24.12000001 10.17t-10.17 24.12zM237.71 580.42333331l0 68.58q0 13.92 10.17 24.12t24.12 10.17l480 0q13.92 0 24.12-10.17t10.17-24.12l0-68.58q0-13.92-10.17-24.12t-24.12000001-10.17l-479.99999998 0q-13.92 0-24.12000001 10.17t-10.17 24.12zM100.58 374.71333330000004l0 68.58000001q0 13.92 10.17 24.12t24.12 10.17l754.29 0q13.92 0 24.12-10.17t10.17-24.12l0-68.58q0-13.92-10.17-24.12t-24.12-10.17l-754.29 0q-13.92 0-24.12 10.17t-10.17 24.11999999zM306.29 169.00333331000002l0 68.58q0 13.92 10.17 24.12t24.12 10.17l342.87 0q13.92 0 24.12-10.17t10.17-24.12l0-68.58q0-13.92-10.17-24.12t-24.12-10.17l-342.87000001 0q-13.92 0-24.11999999 10.17t-10.17 24.12z"  horiz-adv-x="1024" />

    
    <glyph glyph-name="alignleft" unicode="&#58888;" d="M992.03 122.66666667000004l0-68.58q0-13.92-10.17-24.12t-24.12-10.17l-891.42 0q-13.92 0-24.12 10.17t-10.17 24.12l0 68.58q0 13.92 10.17 24.12t24.12 10.17l891.42 0q13.92 0 24.12-10.17t10.17-24.12zM786.32 328.37666666999996l0-68.58q0-13.92-10.17-24.12t-24.12-10.17l-685.71 0q-13.92 0-24.12 10.17t-10.17 24.12l0 68.58q0 13.92 10.17 24.12t24.12 10.17l685.71 0q13.92 0 24.12-10.17t10.17-24.12zM923.45 534.08666667l0-68.58q0-13.92-10.17-24.12t-24.12-10.17l-822.87 0q-13.92 0-24.12 10.17t-10.17 24.12l0 68.58q0 13.92 10.17 24.12t24.12 10.17l822.87 0q13.92 0 24.12-10.17t10.17-24.12zM717.74 739.79666667l0-68.58q0-13.92-10.17-24.12t-24.12-10.17l-617.13 0q-13.92 0-24.12 10.17t-10.17 24.12l0 68.58q0 13.92 10.17 24.12t24.12 10.17l617.13 0q13.92 0 24.12-10.17t10.17-24.12z"  horiz-adv-x="1025" />

    
    <glyph glyph-name="alignright" unicode="&#58889;" d="M992 122.66666667000004l0-68.58q0-13.92-10.17-24.12t-24.12-10.17l-891.42 0q-13.92 0-24.12 10.17t-10.17 24.12l0 68.58q0 13.92 10.17 24.12t24.12 10.17l891.42 0q13.92 0 24.12-10.17t10.17-24.12zM992 328.37666666999996l0-68.58q0-13.92-10.17-24.12t-24.12-10.17l-685.71 0q-13.92 0-24.12 10.17t-10.17 24.12l0 68.58q0 13.92 10.17 24.12t24.12 10.17l685.71 0q13.92 0 24.12-10.17t10.17-24.12zM992 534.08666667l0-68.58q0-13.92-10.17-24.12t-24.12-10.17l-822.87 0q-13.92 0-24.12 10.17t-10.17 24.12l0 68.58q0 13.92 10.17 24.12t24.12 10.17l822.87 0q13.92 0 24.12-10.17t10.17-24.12zM992 739.79666667l0-68.58q0-13.92-10.17-24.12t-24.12-10.17l-617.13 0q-13.92 0-24.12 10.17t-10.17 24.12l0 68.58q0 13.92 10.17 24.12t24.12 10.17l617.13 0q13.92 0 24.12-10.17t10.17-24.12z"  horiz-adv-x="1025" />

    
    <glyph glyph-name="alignmiddle" unicode="&#58890;" d="M32 669.5111111l0 68.57142844q0 13.92857156 10.17857156 24.10714313t24.10714313 10.17857156l891.42857156 0q13.92857156 0 24.10714313-10.17857156t10.17857156-24.10714313l0-68.57142844q0-13.92857156-10.17857157-24.10714312t-24.10714312-10.17857156l-891.42857156 0q-13.92857156 0-24.10714313 10.17857157t-10.17857156 24.10714311z m205.7142853-205.71428531l1e-8 68.57142844q0 13.92857156 10.17857158 24.10714314t24.10714311 10.17857155l480 0q13.92857156 0 24.10714313-10.17857157t10.17857156-24.10714313l1e-8-68.57142843q0-13.92857156-10.17857159-24.10714312t-24.10714311-10.17857157l-480 0q-13.92857156 0-24.10714313 10.17857157t-10.17857157 24.10714312z m-137.14285686-205.71428532l0 68.57142845q0 13.92857156 10.17857156 24.10714312t24.10714313 10.17857158l754.28571468 0q13.92857156 0 24.10714313-10.17857158t10.17857156-24.10714312l0-68.57142846q0-13.92857156-10.17857156-24.10714311t-24.10714313-10.17857156l-754.28571468 0q-13.92857156 0-24.10714313 10.17857156t-10.17857156 24.10714312z m205.71428531-205.7142853l0 68.57142844q0 13.92857156 10.17857156 24.10714311t24.10714313 10.17857157l342.85714312 0q13.92857156 0 24.10714313-10.17857157t10.17857156-24.10714311l0-68.57142844q0-13.92857156-10.17857156-24.10714313t-24.10714313-10.17857157l-342.85714312 0q-13.92857156 0-24.10714313 10.17857157t-10.17857156 24.10714313z"  horiz-adv-x="1024" />

    
    <glyph glyph-name="detail" unicode="&#58960;" d="M159.90581972 676.11294727l704.18746055 0 0-77.22614092-704.18746055 0 0 77.22614092ZM159.90581972 422.61262089l704.18746055 0 0-77.22614091-704.18746055 0 0 77.22614092ZM159.90581972 169.11319364999997l704.18746055 0 0-77.22614092-704.18746055 0 0 77.22614092Z"  horiz-adv-x="1024" />

    
    <glyph glyph-name="aligncenter" unicode="&#58894;" d="M992 121.24444444999995v-68.57142844q0-13.92857156-10.17857156-24.10714312t-24.10714313-10.17857157H66.28571469q-13.92857156 0-24.10714313 10.17857157t-10.17857156 24.10714312v68.57142844q0 13.92857156 10.17857156 24.10714312t24.10714313 10.17857157h891.42857062q13.92857156 0 24.10714313-10.17857158t10.17857156-24.10714311z m-205.71428531 205.71428531v-68.57142844q0-13.92857156-10.17857158-24.10714218t-24.10714311-10.17857157H272q-13.92857156 0-24.10714313 10.17857157t-10.17857156 24.10714219V326.95872976q0 13.92857156 10.17857158 24.10714313t24.10714311 10.17857156h480q13.92857156 0 24.10714313-10.17857156t10.17857156-24.10714313z m137.14285687 205.71428625v-68.57142844q0-13.92857156-10.17857156-24.10714312t-24.10714313-10.17857156H134.85714313q-13.92857156 0-24.10714313 10.17857156t-10.17857156 24.10714312V532.6730160100001q0 13.92857156 10.17857156 24.10714313t24.10714313 10.17857062h754.28571376q13.92857156 0 24.10714311-10.17857062t10.17857156-24.10714313z m-205.71428625 205.71428531v-68.57142843q0-13.92857156-10.17857062-24.10714313t-24.10714313-10.17857062H340.57142844q-13.92857156 0-24.10714313 10.17857062t-10.17857062 24.10714313V738.38730132q0 13.92857156 10.17857062 24.10714313t24.10714313 10.17857156h342.85714312q13.92857156 0 24.10714313-10.17857156t10.17857062-24.10714313z"  horiz-adv-x="1024" />

    
    <glyph glyph-name="plus2" unicode="&#58965;" d="M512.00395508-11.5078125c-19.7793457 0-34.61088867 4.94384766-49.44638672 19.77539063-14.83154297 14.83154297-19.77143555 29.65913086-19.77143555 49.43847656v257.08007812h-257.08007812c-19.77539063 0-34.60693359 4.94384766-49.43847657 19.77539063s-19.77539063 29.66704102-19.77539062 49.43452148C116.4921875 403.77539063 121.43603516 418.60693359 136.26757812 433.43847656s29.66308594 19.77143555 49.43847657 19.77143555h257.08007812V710.29394531c0 19.77539063 4.93989258 34.60693359 19.77143555 49.43847656C477.39306641 774.56396484 492.22460937 779.5078125 512 779.5078125c19.76748047 0 34.60693359-4.94384766 49.43847656-19.77539063 14.82758789-14.83154297 19.77539063-29.66308594 19.77539063-49.43847656v-257.08007812h257.08007812c19.7793457 0 34.60693359-4.93989258 49.44243164-19.77143555C902.56396484 418.60693359 907.5078125 403.77539063 907.5078125 383.99604492000003c0-19.76748047-4.94384766-34.60297852-19.77143555-49.43452148-14.83549805-14.83154297-29.66308594-19.77539063-49.44243164-19.77539063h-257.08007812v-257.08007812c0-19.7793457-4.94384766-34.60693359-19.77539063-49.43847656s-29.66704102-19.77539063-49.43452148-19.77539063z"  horiz-adv-x="1024" />

    
    <glyph glyph-name="dash" unicode="&#59109;" d="M984.615385 354.461538c0-15.753846-13.784615-29.538462-29.538462-29.538461h-886.153846c-15.753846 0-29.538462 13.784615-29.538462 29.538461v59.076924c0 15.753846 13.784615 29.538462 29.538462 29.538461h886.153846c15.753846 0 29.538462-13.784615 29.538462-29.538461v-59.076924z"  horiz-adv-x="1024" />

    
    <glyph glyph-name="text-color" unicode="&#59180;" d="M242 210.92307685000003h70.96153886c10.38461572 0 20.76923057 8.65384628 24.23076856 19.03846202l55.38461573 154.03846113h231.92307685l60.57692315-154.03846114c3.46153886-10.38461572 13.84615371-19.03846113 24.23076943-19.03846201h70.96153799c12.11538428 0 20.76923057 12.11538428 15.57692314 22.5L588.15384628 747.46153886c-3.46153886 10.38461572-12.11538428 17.30769258-22.5 17.30769171H442.76923057c-10.38461572 0-20.76923057-6.92307685-24.23076944-17.30769171l-190.38461484-514.03846201c-5.19230742-10.38461572 3.46153886-22.5 13.84615371-22.5z m254.42307685 450h15.57692315l74.42307685-173.07692314h-155.76923057l65.76923057 173.07692314z m405-553.8461537h-778.8461537c-13.84615371 0-25.96153887-12.11538428-25.96153888-25.96153888v-51.92307685c0-13.84615371 12.11538428-25.96153887 25.96153888-25.96153799h778.8461537c13.84615371 0 25.96153887 12.11538428 25.96153888 25.96153799v51.92307685c0 13.84615371-12.11538428 25.96153887-25.96153888 25.96153888z"  horiz-adv-x="1024" />

    
    <glyph glyph-name="border-all" unicode="&#58983;" d="M810.666667 426.666667h-256V682.666667h256m0-597.333334h-256v256h256m-341.333334 85.333334H213.333333V682.666667h256m0-597.333334H213.333333v256h256m-341.333333-341.333333h768V768H128v-768z"  horiz-adv-x="1024" />

    
    <glyph glyph-name="border-horizontal" unicode="&#58985;" d="M810.666667 0h85.333333v85.333333h-85.333333m-170.666667-85.333333h85.333333v85.333333h-85.333333m-170.666667 85.333334h85.333334v85.333333h-85.333334m341.333334 256h85.333333V597.333333h-85.333333m0 85.333334h85.333333V768h-85.333333M128 341.333333h768v85.333334H128m341.333333-426.666667h85.333334v85.333333h-85.333334m341.333334 85.333334h85.333333v85.333333h-85.333333M554.666667 768h-85.333334v-85.333333h85.333334m0-85.333334h-85.333334v-85.333333h85.333334m170.666666 256h-85.333333v-85.333333h85.333333M384 768H298.666667v-85.333333h85.333333M213.333333 768H128v-85.333333h85.333333m85.333334-682.666667h85.333333v85.333333H298.666667m-170.666667 85.333334h85.333333v85.333333H128m85.333333 341.333333H128v-85.333333h85.333333M128 0h85.333333v85.333333H128v-85.333333z"  horiz-adv-x="1024" />

    
    <glyph glyph-name="border-right" unicode="&#58988;" d="M469.333333 512h85.333334V597.333333h-85.333334m0 85.333334h85.333334V768h-85.333334m0-426.666667h85.333334v85.333334h-85.333334m170.666667 256h85.333333V768h-85.333333m0-768h85.333333v85.333333h-85.333333m170.666667-85.333333h85.333333V768h-85.333333m-170.666667-426.666667h85.333333v85.333334h-85.333333m-170.666667-256h85.333334v85.333333h-85.333334M128 512h85.333333V597.333333H128m0-426.666666h85.333333v85.333333H128m0 85.333333h85.333333v85.333334H128m341.333333-426.666667h85.333334v85.333333h-85.333334m-341.333333-85.333333h85.333333v85.333333H128m170.666667 256h85.333333v85.333334H298.666667m0 256h85.333333V768H298.666667M128 682.666667h85.333333V768H128m170.666667-768h85.333333v85.333333H298.666667v-85.333333z"  horiz-adv-x="1024" />

    
    <glyph glyph-name="border-vertical" unicode="&#58989;" d="M640 341.333333h85.333333v85.333334h-85.333333m0-426.666667h85.333333v85.333333h-85.333333m0 597.333334h85.333333V768h-85.333333m170.666667-256h85.333333V597.333333h-85.333333m0 85.333334h85.333333V768h-85.333333m0-426.666667h85.333333v85.333334h-85.333333m0-426.666667h85.333333v85.333333h-85.333333m-341.333334-85.333333h85.333334V768h-85.333334m341.333334-597.333333h85.333333v85.333333h-85.333333M298.666667 682.666667h85.333333V768H298.666667M128 170.666667h85.333333v85.333333H128m0-256h85.333333v85.333333H128m0 256h85.333333v85.333334H128m170.666667-85.333334h85.333333v85.333334H298.666667m0-426.666667h85.333333v85.333333H298.666667M128 682.666667h85.333333V768H128m0-256h85.333333V597.333333H128v-85.333333z"  horiz-adv-x="1024" />

    
    <glyph glyph-name="background-color" unicode="&#59224;" d="M810.666667 277.33333302000005s-85.333333-92.586667-85.333334-149.333333a85.333333 85.333333 0 0 1 85.333334-85.333333 85.333333 85.333333 0 0 1 85.333333 85.333333c0 56.746667-85.333333 149.333333-85.333333 149.333333M222.293333 341.33333302000005L426.666667 545.7066670199999 631.04 341.33333302000005m75.52 45.226667L325.12 768.00000002 264.96 707.8400000199999l101.546667-101.546667-219.733334-219.733333c-25.173333-23.893333-25.173333-65.28 0-90.453333l234.666667-234.666667c12.373333-12.373333 29.013333-18.773333 45.226667-18.773333s32.853333 6.4 45.226666 18.773333l234.666667 234.666667c25.173333 25.173333 25.173333 66.56 0 90.453333z"  horiz-adv-x="1024" />

    
    <glyph glyph-name="numeric" unicode="&#59412;" d="M170.666667 170.666667V512H85.333333V597.333333h170.666667v-426.666666H170.666667m768 85.333333a85.333333 85.333333 0 0 0-85.333334-85.333333h-170.666666v85.333333h170.666666v85.333333h-85.333333v85.333334h85.333333V512h-170.666666V597.333333h170.666666a85.333333 85.333333 0 0 0 85.333334-85.333333v-64a64 64 0 0 0-64-64 64 64 0 0 0 64-64V256m-341.333334 0v-85.333333H341.333333v170.666666a85.333333 85.333333 0 0 0 85.333334 85.333334h85.333333V512H341.333333V597.333333h170.666667a85.333333 85.333333 0 0 0 85.333333-85.333333v-85.333333a85.333333 85.333333 0 0 0-85.333333-85.333334h-85.333333v-85.333333h170.666666z"  horiz-adv-x="1024" />

    
    <glyph glyph-name="delete-detail" unicode="&#59473;" d="M20.07545638 694.68918518v-103.56306132h621.37837037V694.68918518H20.07545638m0-207.12612386v-103.56306132h414.25224773v103.56306132H20.07545638m630.18123143-39.35396264l-73.01195852-73.01195852L723.78646083 228.65540740999995l-146.54173154-146.54173275 73.01195852-73.01195852L796.79841934 155.64344888999995l146.54173276-146.54173275 73.01195851 73.01195852L869.81037787 228.65540740999995l146.54173274 146.54173275-73.01195851 73.01195852L796.79841934 301.66736591999995l-146.54173153 146.54173276M20.07545638 280.43693868v-103.56306254h414.25224773v103.56306254H20.07545638z"  horiz-adv-x="1024" />

    
    <glyph glyph-name="redo" unicode="&#59042;" d="M184.65048828 433.57470703c16.04091797 37.7578125 38.96455078 71.69238281 68.13369141 100.86152344s63.10283203 52.09189453 100.86152343 68.13369141c39.19746094 16.65263672 80.73105469 25.09541016 123.44765625 25.09541015H633.52636719c0.81738281 0 1.62773438-0.02724609 2.43632812-0.06152344V757.8287109400001c0 15.63310547 18.90087891 23.46240234 29.95576172 12.40751953l193.3875-193.3875c6.85283203-6.85283203 6.85283203-17.96308594 0-24.81591797L665.91845703 358.64531250000005c-11.05400391-11.05400391-29.95576172-3.22558594-29.95576172 12.40751953V515.2259765599999c-0.80859375-0.03427734-1.61894531-0.06152344-2.43632812-0.06152343H477.09248047c-113.05898437 0-205.03828125-91.97929688-205.03828125-205.03828125 0-113.05898437 91.97929688-205.03828125 205.03828125-205.03828125H633.52636719c31.06582031 0 56.25-25.18330078 56.25-56.25s-25.18417969-56.25-56.25-56.25H477.09248047c-42.71748047 0-84.25019531 8.44277344-123.44765625 25.09628906-37.75869141 16.04091797-71.69238281 38.96455078-100.86152344 68.1336914s-52.09277344 63.10283203-68.13369141 100.86152344c-16.65263672 39.19746094-25.09628906 80.73105469-25.09628906 123.44765625s8.44453125 84.25019531 25.09716797 123.44765625z"  horiz-adv-x="1024" />

    
    <glyph glyph-name="undo" unicode="&#59052;" d="M839.34951172 433.57470703c-16.04091797 37.7578125-38.96455078 71.69238281-68.13369141 100.86152344s-63.10283203 52.09189453-100.86152343 68.13369141c-39.19746094 16.65263672-80.73105469 25.09541016-123.44765625 25.09541015H390.47363281c-0.81738281 0-1.62773438-0.02724609-2.43632812-0.06152344V757.8287109400001c0 15.63310547-18.90087891 23.46240234-29.95576172 12.40751953L164.69404297 576.84873047c-6.85283203-6.85283203-6.85283203-17.96308594 0-24.81591797l193.3875-193.3875c11.05400391-11.05400391 29.95576172-3.22558594 29.95576172 12.40751953V515.2268554699999c0.80859375-0.03427734 1.61894531-0.06152344 2.43632812-0.06152344h156.43300781c113.05898437 0 205.03828125-91.97929688 205.03828126-205.03828125 0-113.05898437-91.97929688-205.03828125-205.03828125-205.03828125H390.47363281c-31.06582031 0-56.25-25.18330078-56.25-56.25s25.18417969-56.25 56.25-56.25h156.43300781c42.71748047 0 84.25019531 8.44277344 123.44765626 25.09628906 37.75869141 16.04091797 71.69238281 38.96455078 100.86152343 68.13369141s52.09277344 63.10283203 68.13369141 100.86152344c16.65263672 39.19746094 25.09628906 80.73105469 25.09628906 123.44765625s-8.44365234 84.24931641-25.09628906 123.44677734z"  horiz-adv-x="1024" />

    
    <glyph glyph-name="help" unicode="&#59370;" d="M690.2 741.8C635.2 783.6 573.2 798 494.6 798c-59.6 0-110.6-12.2-151-39.4C284 718 256 649.8 256 542h153.6c0 28.8-2.8 59.8 14 86.4 16.8 26.6 40.2 47 80.4 47 40.8 0 61.8-11.8 81.6-36.2 16.8-20.8 23.2-45.6 23.2-72 0-22.8-11.6-43.8-25.4-62.8-7.6-11.2-17.6-21.2-30.2-30.8 0 0-83-49.4-112.2-96.2-21.8-34.8-29.6-78.4-31.4-130.6-0.2-3.8 1.2-11.6 14.4-11.6h123.6c11.6 0 14 8.8 14.2 12.4 0.8 19 3.2 48.2 6.6 59.2 6.6 20.8 19.4 39 39.4 54.6l41.4 28.6c37.4 29.2 67.2 53 80.4 71.8 22.6 30.8 38.4 68.8 38.4 113.8 0 73.4-27 127.6-77.8 166.2zM484 155.6c-51.8 1.6-94.6-34.4-96.4-90.6-1.6-56.4 39-93.4 91-95 54-1.6 95.8 33.2 97.4 89.4 1.6 56.2-38 94.6-92 96.2z"  horiz-adv-x="1024" />

    
    <glyph glyph-name="import" unicode="&#59029;" d="M894.75 415.5a32 32 0 0 1-32-32v-290.21A60.36 60.36 0 0 0 802.46 33H221a60.36 60.36 0 0 0-60.29 60.29V674.71A60.36 60.36 0 0 0 221 735h290.75a32 32 0 0 1 0 64H221A124.43 124.43 0 0 1 96.75 674.71v-581.42A124.43 124.43 0 0 1 221-31h581.46a124.43 124.43 0 0 1 124.29 124.29V383.5a32 32 0 0 1-32 32zM480.25 383.5v-48.75l-80.37 80.37a32 32 0 0 1-45.25-45.25l133-133a32 32 0 0 1 45.25 0l133 133a32 32 0 0 1-45.25 45.25l-76.37-76.37V383.5c0 193.54 157.46 351 351 351a32 32 0 0 1 0 64 414.68 414.68 0 0 1-415-415z"  horiz-adv-x="1024" />

    
    <glyph glyph-name="ac" unicode="&#58928;" d="M188.072 330.98400000000004l27.648 86.016c19.968 63.744 38.4 124.416 56.088 190.464h3.072c18.432-65.28 36-126.72 56.832-190.464l26.88-86.016H188.072z m241.944-228.888h75.264L314.048 665.088h-79.2L43.688 102.168h72.192l54.528 172.032h205.848z m376.8-9.984a217.632 217.632 0 0 1 172.8 80.64l-39.168 44.544a171.12 171.12 0 0 0-130.56-62.976c-107.52 0-175.2 89.088-175.2 231.192 0 140.544 70.656 228 177.408 228a153.768 153.768 0 0 0 115.2-53.76l38.4 46.08a208.176 208.176 0 0 1-154.368 69.912c-142.848 0-249.6-110.616-249.6-292.632 0.072-182.64 105.312-290.928 245.16-290.928z"  horiz-adv-x="1024" />

    
    <glyph glyph-name="select2" unicode="&#59249;" d="M913.430624 651.442942H111.109988c-24.617275 0-44.5728-19.96474-44.5728-44.577919v-445.726974c0-24.622394 19.955525-44.582015 44.5728-44.582015h802.320636c24.613179 0 44.568704 19.959621 44.568704 44.582015v445.727998c0 24.613179-19.955525 44.576895-44.568704 44.576895z m0-490.30387H111.109988V606.866047h802.320636v-445.726975z m-89.631945 267.438847H646.468907l88.669493-88.664373 88.660279 88.664373zM556.841058 562.2922229999999h-44.5728v-356.584446h44.5728V562.2922229999999z"  horiz-adv-x="1024" />

    
    <glyph glyph-name="yes" unicode="&#59017;" d="M54.464 344L384 14.464l585.536 585.536-96 96L384 206.464 150.4 440l-96-96z"  horiz-adv-x="1024" />

    
    <glyph glyph-name="blank" unicode="&#58937;" d=""  horiz-adv-x="1024" />

    
    <glyph glyph-name="select" unicode="&#58949;" d="M118.73871511 541.30451429c0 14.30040978 7.15020573 28.60082124 14.30041146 42.90123102 21.4506155 14.30040978 50.05143676 14.30040978 64.35184653-7.15020573l321.75923263-278.85800161 300.30861711 278.85800161c21.4506155 21.4506155 50.05143676 21.4506155 71.50205059 0 21.4506155-21.4506155 21.4506155-57.20164081 0-78.65225632l-336.05964242-314.60902857c-7.15020573-14.30040978-21.4506155-14.30040978-28.60082123-14.30040976-14.30040978 0-21.4506155 7.15020573-35.75102528 14.30040976l-357.51025793 314.60902857c-7.15020573 14.30040978-14.30040978 28.60082124-14.30041146 42.90123103z"  horiz-adv-x="1024" />

    
    <glyph glyph-name="drop-down" unicode="&#59134;" d="M170.666667 810.666667h682.666666a85.333333 85.333333 0 0 0 85.333334-85.333334v-682.666666a85.333333 85.333333 0 0 0-85.333334-85.333334H170.666667a85.333333 85.333333 0 0 0-85.333334 85.333334V725.333333a85.333333 85.333333 0 0 0 85.333334 85.333334z m0-42.666667a42.666667 42.666667 0 0 1-42.666667-42.666667v-682.666666a42.666667 42.666667 0 0 1 42.666667-42.666667h682.666666a42.666667 42.666667 0 0 1 42.666667 42.666667V725.333333a42.666667 42.666667 0 0 1-42.666667 42.666667H170.666667z m324.949333-492.373333L327.808 477.013333A21.333333 21.333333 0 0 0 344.234667 512h335.530666a21.333333 21.333333 0 0 0 16.426667-34.986667l-167.808-201.386666a21.333333 21.333333 0 0 0-32.768 0zM634.24 469.333333h-244.48L512 322.64533300000005 634.24 469.333333z"  horiz-adv-x="1024" />

    
    <glyph glyph-name="single-dot" unicode="&#58986;" d="M570.843 74.30100000000004H453.627V191.51700000000005h117.216v-117.216z"  horiz-adv-x="1024" />

    
    <glyph glyph-name="divide2" unicode="&#58898;" d="M517.2 612.5m-94.5 0a94.5 94.5 0 1 1 189 0 94.5 94.5 0 1 1-189 0ZM517.2 141.60000000000002m-94.5 0a94.5 94.5 0 1 1 189 0 94.5 94.5 0 1 1-189 0ZM193.3 430.5H841v-103.1H193.3z"  horiz-adv-x="1024" />

    
    <glyph glyph-name="more" unicode="&#59991;" d="M227.4 288C172.4 288 128 330.8 128 384c0 53 44.4 96 99.4 96 55.2 0 99.6-43 99.6-96 0-53.2-44.4-96-99.6-96zM512 288c-55 0-99.6 42.8-99.6 96 0 53 44.6 96 99.6 96 55 0 99.4-43 99.4-96 0-53.2-44.4-96-99.4-96zM796.4 288c-55 0-99.6 42.8-99.6 96 0 53 44.4 96 99.6 96 55 0 99.6-43 99.6-96 0-53.2-44.4-96-99.6-96z"  horiz-adv-x="1024" />

    
    <glyph glyph-name="back" unicode="&#58925;" d="M955.076923 441.43589767H301.292308c-17.723077 0-25.6 21.661538-13.784616 33.476923l189.046154 189.046154c11.815385 11.815385 11.815385 29.538462 0 41.353846L433.230769 748.63589767c-11.815385 11.815385-29.538462 11.815385-41.353846 0L47.261538 404.02051267c-11.815385-11.815385-11.815385-29.538462 0-41.353846l344.615385-344.615385c11.815385-11.815385 29.538462-11.815385 41.353846 0l41.353846 41.353847c11.815385 11.815385 11.815385 29.538462 0 41.353846l-189.046153 189.046154c-11.815385 11.815385-3.938462 33.476923 13.784615 33.476923h653.784615c15.753846 0 29.538462 13.784615 29.538462 29.538461v59.076923c1.969231 15.753846-11.815385 29.538462-27.569231 29.538462z"  horiz-adv-x="1024" />

    
    <glyph glyph-name="number" unicode="&#58933;" d="M400.76342773 310.89597412l-185.3942871 269.66441733H158.06545168v-360.67615881h53.93288405v269.66441807h3.3708049l185.3942871-273.03522297h53.93288332V580.56039145H400.76342773v-269.66441733z m242.69797606 175.28187097c-40.44966232 0-70.78690995-13.48322102-94.38254637-40.44966231-23.5956364-26.96644203-33.70805253-57.30368895-33.70805253-97.75335124s10.11241539-70.78690995 33.70805253-97.75335127c23.5956364-26.96644203 57.30368895-40.44966232 94.38254637-40.44966304 40.44966232 0 70.78690995 13.48322102 94.38254563 40.44966304 23.5956364 26.96644203 33.70805253 57.30368895 33.70805253 97.75335127s-13.48322102 70.78690995-33.70805252 97.75335124c-23.5956364 26.96644203-53.93288332 40.44966232-94.38254564 40.44966231z m57.30368821-202.24831301c-13.48322102-20.22483153-33.70805253-30.33724691-57.30368821-30.33724691s-43.82046793 10.11241539-57.30368895 30.33724691c-13.48322102 16.85402589-16.85402589 37.07885742-16.85402589 64.04529946 0 26.96644203 6.74161051 47.19127282 16.85402589 64.04529871 13.48322102 20.22483153 33.70805253 30.33724691 57.30368895 30.33724692s43.82046793-10.11241539 57.30368821-30.33724692c13.48322102-16.85402589 16.85402589-37.07885742 16.85402664-64.04529871 3.37080489-23.5956364-3.37080489-47.19127282-16.85402664-64.04529946z m188.76509273-3.3708049c-6.74161051 6.74161051-16.85402589 10.11241539-26.96644204 10.11241541-10.11241539 0-20.22483153-3.37080489-26.96644129-10.11241541-6.74161051-6.74161051-10.11241539-13.48322102-10.11241613-26.96644201 0-10.11241539 3.37080489-20.22483153 10.11241613-26.96644203 6.74161051-6.74161051 16.85402589-10.11241539 26.96644129-10.1124154 10.11241539 0 20.22483153 3.37080489 26.96644204 10.1124154 6.74161051 6.74161051 10.11241539 16.85402589 10.11241538 26.96644203 0 13.48322102-3.37080489 20.22483153-10.11241538 26.96644201z"  horiz-adv-x="1047" />

    
    <glyph glyph-name="number5" unicode="&#58885;" d="M307.2 896h384v-51.2h-384V896z m51.2-51.2V384h-51.2V844.8h51.2zM358.4 384h-51.2v-153.6h51.2v-51.2a153.6 153.6 0 0 1 159.334-153.498l4.506-0.102c37.222 0 98.816 9.882 132.454 96.666a151.318 151.318 0 0 1 2.816 7.577c12.8 36.506 20.89 85.658 20.89 151.757 0 235.827-102.4 256-156.16 256-1.536 0-3.02 0-4.506-0.102A153.6 153.6 0 0 1 358.4 384z m220.467 193.638c39.731-11.878 80.384-36.659 109.363-89.292 9.984-16.743 17.562-35.021 22.426-54.426 11.878-39.629 18.944-89.549 18.944-152.32 0-62.054-6.912-111.514-18.586-150.886a203.622 203.622 0 0 0-25.036-59.597c-28.058-48.487-66.15-72.397-103.783-84.378A204.8 204.8 0 0 0 307.2 179.20000000000005V384a204.8 204.8 0 0 0 271.667 193.638z"  horiz-adv-x="1024" />

    
    <glyph glyph-name="save" unicode="&#59114;" d="M649.9 768.1h-450c-39.8 0-72-32.2-72-72v-623c0-39.8 32.2-72 72-72h623c39.8 0 72 32.2 72 72V523.2l-245 244.9z m-321.1-72h217v-205.9c0-19.9-16.1-36-36-36h-145c-19.9 0-36 16.1-36 36V696.1z m494.1-623h-623v623h56.9v-205.9c0-59.6 48.4-108 108-108h145c59.6 0 108 48.4 108 108V696.1h2.3l202.7-202.7v-420.3zM468.8 526.2c19.9 0 36 16.1 36 36v43c0 19.9-16.1 36-36 36s-36-16.1-36-36v-43c0-19.9 16.1-36 36-36z"  horiz-adv-x="1024" />

    
    <glyph glyph-name="number7" unicode="&#58880;" d="M716.4416 844.8L401.408-20.787199999999984l-48.128 17.5104L661.9648 844.8H256V896h460.8v-51.2h-0.3584z"  horiz-adv-x="1024" />

    
    <glyph glyph-name="cancel" unicode="&#58948;" d="M885.79512418 9.567896580000024a72.18430389 72.18430389 0 0 0-101.90105452 0L138.3977863 655.48569394A72.13161484 72.13161484 0 0 0 240.35152987 757.43943753L885.79512418 111.57432921999998a72.23699295 72.23699295 0 0 0 1e-8-102.00643264z m-0.79033969 646.23393324L239.56119093 9.936721509999984a72.07892578 72.07892578 0 0 0-101.90105452 101.95374359L783.10373072 757.7555734a72.07892578 72.07892578 0 1 0 101.90105377-101.90105452z"  horiz-adv-x="1024" />

    
    <glyph glyph-name="number9" unicode="&#58881;" d="M437.914-25.600000000000023l160.921 442.112A211.763 211.763 0 0 0 486.4 384C359.168 384 256 498.637 256 640S359.168 896 486.4 896s230.4-114.637 230.4-256a279.04 279.04 0 0 0-21.35-107.827L492.39-25.600000000000023h-54.476zM486.4 844.8c-98.97 0-179.2-91.648-179.2-204.8s80.23-204.8 179.2-204.8S665.6 526.848 665.6 640 585.37 844.8 486.4 844.8z"  horiz-adv-x="1024" />

    
    <glyph glyph-name="number8" unicode="&#58882;" d="M590.4384 461.6192A230.4 230.4 0 0 0 716.8 256v-51.2a230.4 230.4 0 1 0-460.8 0v51.2a230.4 230.4 0 0 0 126.3616 205.6192A217.6 217.6 0 0 0 268.8 652.8v25.6a217.6 217.6 0 1 0 435.2 0v-25.6a217.6 217.6 0 0 0-113.5616-191.1808zM486.4 844.8a166.4 166.4 0 0 1-166.4-166.4v-25.6a166.4 166.4 0 1 1 332.8 0v25.6A166.4 166.4 0 0 1 486.4 844.8z m0-409.6A179.2 179.2 0 0 1 307.2 256v-51.2a179.2 179.2 0 0 1 358.4 0v51.2A179.2 179.2 0 0 1 486.4 435.2z"  horiz-adv-x="1024" />

    
    <glyph glyph-name="date" unicode="&#59025;" d="M796.79842016 21.529283549999946h-569.59684032c-41.42522429 0-77.6722963 36.24707201-77.67229629 77.67229629v517.81530905C149.52928355 658.44211317 185.77635555 694.68918518 227.20157984 694.68918518h569.59684032c41.42522429 0 77.6722963-36.24707201 77.67229629-77.67229629v-517.81530905c0-41.42522429-36.24707201-77.6722963-77.67229629-77.67229629zM227.20157984 642.90765392c-15.53445925 0-25.89076502-10.35630577-25.89076502-25.89076503v-517.81530905c0-15.53445925 10.35630577-25.89076502 25.89076502-25.89076502h569.59684032c15.53445925 0 25.89076502 10.35630577 25.89076502 25.89076502v517.81530905c0 15.53445925-10.35630577 25.89076502-25.89076502 25.89076503h-569.59684032zM796.79842016 21.529283549999946h-569.59684032c-41.42522429 0-77.6722963 36.24707201-77.67229629 77.67229629v414.25224772C149.52928355 554.87905185 185.77635555 591.12612386 227.20157984 591.12612386h569.59684032c41.42522429 0 77.6722963-36.24707201 77.67229629-77.6722963v-414.25224772c0-41.42522429-36.24707201-77.6722963-77.67229629-77.67229629zM227.20157984 539.34459259c-15.53445925 0-25.89076502-10.35630577-25.89076502-25.89076503v-414.25224772c0-15.53445925 10.35630577-25.89076502 25.89076502-25.89076502h569.59684032c15.53445925 0 25.89076502 10.35630577 25.89076502 25.89076502v414.25224772c0 15.53445925-10.35630577 25.89076502-25.89076502 25.89076503h-569.59684032zM304.87387614 746.47071645h51.78153127v-103.56306253H304.87387614zM304.87387614 435.78153127h103.56306254v-51.78153127H304.87387614zM304.87387614 332.21846873000004h103.56306254v-51.78153005H304.87387614zM304.87387614 228.65540740999995h103.56306254v-51.78153127H304.87387614zM460.21846873 435.78153127h103.56306254v-51.78153127h-103.56306254zM460.21846873 332.21846873000004h103.56306254v-51.78153005h-103.56306254zM460.21846873 228.65540740999995h103.56306254v-51.78153127h-103.56306254zM615.56306132 435.78153127h103.56306254v-51.78153127h-103.56306254zM615.56306132 332.21846873000004h103.56306254v-51.78153005h-103.56306254zM615.56306132 228.65540740999995h103.56306254v-51.78153127h-103.56306254zM667.34459259 746.47071645h51.78153127v-103.56306253h-51.78153127z"  horiz-adv-x="1024" />

    
    <glyph glyph-name="number2" unicode="&#58883;" d="M319.280533 25.561378999999988l341.776444 463.601804-41.205637 30.353966-364.042843-493.802208 0.511871-0.35831V-25.625747000000047h460.684138v51.187126H319.280533zM257.70242 639.8068969999999a230.342069 230.342069 0 0 0 448.092105 96.743669l-46.477911-23.187769A179.257317 179.257317 0 0 1 309.299044 639.8068969999999H257.70242zM705.18028 738.751612A281.529195 281.529195 0 0 0 717.004506 657.722391a280.300704 280.300704 0 0 0-57.841453-170.965002l-41.15445 30.45634a230.802753 230.802753 0 0 1 40.642579 197.684682l46.529098 23.853201z"  horiz-adv-x="1024" />

    
    <glyph glyph-name="number6" unicode="&#58884;" d="M534.886 896L373.965 453.888A211.763 211.763 0 0 0 486.4 486.4c127.232 0 230.4-114.637 230.4-256s-103.168-256-230.4-256S256 89.03700000000003 256 230.39999999999998c0 38.502 7.68 75.06 21.35 107.827L480.41 896h54.476zM486.4 25.600000000000023c98.97 0 179.2 91.648 179.2 204.8s-80.23 204.8-179.2 204.8-179.2-91.648-179.2-204.8 80.23-204.8 179.2-204.8z"  horiz-adv-x="1024" />

    
    <glyph glyph-name="number4" unicode="&#58932;" d="M256.614 179.20000000000005l-0.614 0.256L614.4 895.488V896h51.2v-716.8H768V128H665.6v-153.6h-51.2V128H256v51.2h0.614z m56.474 0H614.4V781.107L313.088 179.20000000000005z"  horiz-adv-x="1024" />

    
    <glyph glyph-name="clear" unicode="&#58931;" d="M879.25725413 572.33705372h-734.51450826a28.25055836 28.25055836 0 0 0 0 56.50111596H304.82924122V723.00669653a56.50111596 56.50111596 0 0 0 56.50111596 56.50111597h301.33928564a56.50111596 56.50111596 0 0 0 56.50111596-56.50111596v-94.16852686h160.08649535a28.25055836 28.25055836 0 0 0 0-56.50111596zM662.66964282 685.33928565a37.6674109 37.6674109 0 0 1-37.66741089 37.66741089H398.99776808a37.6674109 37.6674109 0 0 1-37.6674109-37.6674109v-56.50111596h301.33928564V685.33928565zM380.16406225 148.57868284999995v301.33928565a28.25055836 28.25055836 0 0 0 56.50111595 0v-301.33928565a28.25055836 28.25055836 0 0 0-56.50111595 0z m207.17075955 0v301.33928565a28.25055836 28.25055836 0 0 0 56.50111595 0v-301.33928565a28.25055836 28.25055836 0 0 0-56.50111595 0zM238.91127194 534.66964282a28.00571972 28.00571972 0 0 0 26.36718803-18.83370507H267.16183032v-433.1752234a37.6674109 37.6674109 0 0 1 37.6674109-37.66741088h414.34151756a37.6674109 37.6674109 0 0 1 37.6674109 37.66741088V515.8359377500001h1.88337035a27.85505055 27.85505055 0 0 0 52.73437526 0h1.88337035v-470.84263428a56.50111596 56.50111596 0 0 0-56.50111596-56.50111597H267.16183032a56.50111596 56.50111596 0 0 0-56.50111597 56.50111597V515.8359377500001h1.88337037a28.00571972 28.00571972 0 0 0 26.36718722 18.83370507z"  horiz-adv-x="1024" />

    
    <glyph glyph-name="backspace" unicode="&#60933;" d="M896 426.656H291.424L444.16 579.84 384 640l-256-256 256-256 60.16 60.16-152.736 153.184H896z"  horiz-adv-x="1024" />

    
    <glyph glyph-name="border-outer" unicode="&#59305;" d="M880 784H144c-17.7 0-32-14.3-32-32v-736c0-17.7 14.3-32 32-32h736c17.7 0 32 14.3 32 32V752c0 17.7-14.3 32-32 32z m-40-728H184V712h656v-656zM484 530h56c4.4 0 8 3.6 8 8v56c0 4.4-3.6 8-8 8h-56c-4.4 0-8-3.6-8-8v-56c0-4.4 3.6-8 8-8zM302 348h56c4.4 0 8 3.6 8 8v56c0 4.4-3.6 8-8 8h-56c-4.4 0-8-3.6-8-8v-56c0-4.4 3.6-8 8-8zM666 348h56c4.4 0 8 3.6 8 8v56c0 4.4-3.6 8-8 8h-56c-4.4 0-8-3.6-8-8v-56c0-4.4 3.6-8 8-8zM484 348h56c4.4 0 8 3.6 8 8v56c0 4.4-3.6 8-8 8h-56c-4.4 0-8-3.6-8-8v-56c0-4.4 3.6-8 8-8zM484 166h56c4.4 0 8 3.6 8 8v56c0 4.4-3.6 8-8 8h-56c-4.4 0-8-3.6-8-8v-56c0-4.4 3.6-8 8-8z"  horiz-adv-x="1024" />

    
    <glyph glyph-name="border-inner" unicode="&#59308;" d="M872 420H548V752h-72v-332H152c-4.4 0-8-3.6-8-8v-56c0-4.4 3.6-8 8-8h324v-332h72V348h324c4.4 0 8 3.6 8 8v56c0 4.4-3.6 8-8 8zM872 586h-56c-4.4 0-8-3.6-8-8v-56c0-4.4 3.6-8 8-8h56c4.4 0 8 3.6 8 8v56c0 4.4-3.6 8-8 8zM872 88h-56c-4.4 0-8-3.6-8-8v-56c0-4.4 3.6-8 8-8h56c4.4 0 8 3.6 8 8v56c0 4.4-3.6 8-8 8zM872 752h-56c-4.4 0-8-3.6-8-8v-56c0-4.4 3.6-8 8-8h56c4.4 0 8 3.6 8 8v56c0 4.4-3.6 8-8 8zM872 254h-56c-4.4 0-8-3.6-8-8v-56c0-4.4 3.6-8 8-8h56c4.4 0 8 3.6 8 8v56c0 4.4-3.6 8-8 8zM650 680h56c4.4 0 8 3.6 8 8v56c0 4.4-3.6 8-8 8h-56c-4.4 0-8-3.6-8-8v-56c0-4.4 3.6-8 8-8zM706 88h-56c-4.4 0-8-3.6-8-8v-56c0-4.4 3.6-8 8-8h56c4.4 0 8 3.6 8 8v56c0 4.4-3.6 8-8 8zM374 88h-56c-4.4 0-8-3.6-8-8v-56c0-4.4 3.6-8 8-8h56c4.4 0 8 3.6 8 8v56c0 4.4-3.6 8-8 8zM318 680h56c4.4 0 8 3.6 8 8v56c0 4.4-3.6 8-8 8h-56c-4.4 0-8-3.6-8-8v-56c0-4.4 3.6-8 8-8zM152 680h56c4.4 0 8 3.6 8 8v56c0 4.4-3.6 8-8 8h-56c-4.4 0-8-3.6-8-8v-56c0-4.4 3.6-8 8-8zM208 88h-56c-4.4 0-8-3.6-8-8v-56c0-4.4 3.6-8 8-8h56c4.4 0 8 3.6 8 8v56c0 4.4-3.6 8-8 8zM152 514h56c4.4 0 8 3.6 8 8v56c0 4.4-3.6 8-8 8h-56c-4.4 0-8-3.6-8-8v-56c0-4.4 3.6-8 8-8zM208 254h-56c-4.4 0-8-3.6-8-8v-56c0-4.4 3.6-8 8-8h56c4.4 0 8 3.6 8 8v56c0 4.4-3.6 8-8 8z"  horiz-adv-x="1024" />

    
    <glyph glyph-name="dash1" unicode="&#59388;" d="M112 420h160v-72H112zM432 420h160v-72H432zM752 420h160v-72H752z"  horiz-adv-x="1024" />

    
    <glyph glyph-name="line" unicode="&#59389;" d="M904 420H120c-4.4 0-8-3.6-8-8v-56c0-4.4 3.6-8 8-8h784c4.4 0 8 3.6 8 8v56c0 4.4-3.6 8-8 8z"  horiz-adv-x="1024" />

    
    <glyph glyph-name="number3" unicode="&#58887;" d="M486.708 428.419a177.042 177.042 0 0 0 177.043-177.043v-50.583a177.042 177.042 0 0 0-354.085 0v25.292h-50.584V238.73000000000002v-37.937a227.626 227.626 0 1 1 455.252 0v50.583a227.626 227.626 0 0 1-124.84 203.144 214.98 214.98 0 0 1 112.194 188.879V668.69a214.98 214.98 0 1 1-429.606 12.646h50.736a164.396 164.396 0 0 0 328.287-12.646l0.05-25.291a164.396 164.396 0 0 0-164.447-164.397h-25.292v-50.583h25.292z"  horiz-adv-x="1024" />

    
    <glyph glyph-name="number0" unicode="&#58892;" d="M486.4 896A230.4 230.4 0 0 0 716.8 665.6v-460.8a230.4 230.4 0 1 0-460.8 0v460.8A230.4 230.4 0 0 0 486.4 896Zm0-51.2A179.2 179.2 0 0 1 307.2 665.6v-460.8a179.2 179.2 0 0 1 358.4 0v460.8A179.2 179.2 0 0 1 486.4 844.8Z"  horiz-adv-x="1024" />

    
    <glyph glyph-name="area" unicode="&#58950;" d="M913.27602587 620.01699618a26.74780775 26.74780775 0 0 1 26.80672272 26.74780638v141.39810028a26.74780775 26.74780775 0 0 1-26.80672272 26.68889143h-141.39810027a26.74780775 26.74780775 0 0 1-26.74780777-26.74780638v-43.95124376h-86.84200038a26.86563906 26.86563906 0 0 1-8.13039076 0H278.86988217V788.16290284a26.74780775 26.74780775 0 0 1-26.74780777 26.74780777h-141.39810027a26.74780775 26.74780775 0 0 1-26.80672272-26.74780777v-141.39810028c0-14.72896923 12.01883853-26.68889142 26.80672272-26.68889142h43.89232742v-466.37806697H110.78289046a26.74780775 26.74780775 0 0 1-26.80672272-26.74780775v-141.39810029c0-14.72896923 12.01883853-26.68889142 26.80672272-26.68889142h141.39810028c14.72896923 0 26.74780775 11.95992219 26.74780777 26.74780776v43.95124237h466.26023566v-43.95124237c0-14.78788419 12.01883853-26.74780775 26.74780638-26.74780776h141.39810028a26.74780775 26.74780775 0 0 1 26.8067241 26.74780776v141.39810027a26.74780775 26.74780775 0 0 1-26.8067241 26.68889143h-43.89232604V528.93305278 620.01699618h43.89232604z m-114.59137756 141.33918394h87.8435698v-87.84356979h-87.8435698V761.35618012zM208.17083202 431.95752281a26.86563906 26.86563906 0 0 1 4.41869064 3.53495251l255.10573971 255.16465466h121.66128119l-381.18571154-381.18571155v122.48610438z m-70.69905013 329.39865731h87.8435698v-87.84356979H137.47178189V761.35618012z m114.65029251-141.39810028c14.72896923 0 26.74780775 12.01883853 26.74780777 26.80672272v43.89232742h113.23631152L208.17083202 506.72176832V620.01699618h43.95124238z m-43.95124238-386.13464506l456.8336952 456.8336952h80.12559061v-32.75722701L240.98697401 153.63892783999995h-32.75722565v80.18450694z m-70.69905013-221.52369089v87.84356981h87.8435698v-87.84356981H137.47178189z m678.35738609 333.28710507L559.72185885 89.42062486999998a26.74780775 26.74780775 0 0 1-4.71326955-6.48074716h-121.77911387l382.65860889 382.7175252v-120.07055395z m70.69905013-333.28710507h-87.8435698v87.84356981h87.8435698v-87.84356981z m-114.65029251 141.39810028a26.74780775 26.74780775 0 0 1-26.74780777-26.80672272v-43.89232741h-116.18210618l186.88115633 186.94007127v-116.29993747h-43.95124238z m43.95124238 387.66645872l-458.36550887-458.36550885H278.92879851v32.99288959l504.08422748 504.02531255h32.87505833V541.30538656z"  horiz-adv-x="1024" />

    
    <glyph glyph-name="number1" unicode="&#58893;" d="M563.2 870.4v-896H512V844.8H409.6V896h153.6v-25.6z"  horiz-adv-x="1024" />

    
    <glyph glyph-name="checkbox" unicode="&#58943;" d="M806.3112748 519.94301504h49.63235285V11.757352849999961H161.09068618V706.61029432h416.56433862v-49.63235286H210.72303901v-595.58823578h595.58823579V519.94301504zM352.37377479 401.56985285l-35.1397065-35.1397057 170.4375-170.4375L864.23223048 767.36029432l-41.44301504 27.34742641L479.73039186 274.16360284999996 352.37377479 401.56985285z"  horiz-adv-x="1024" />

    
    <glyph glyph-name="minus" unicode="&#58899;" d="M796.5 348h-569c-19.9 0-36 16.1-36 36s16.1 36 36 36h569c19.9 0 36-16.1 36-36s-16.1-36-36-36z"  horiz-adv-x="1024" />

    
    <glyph glyph-name="divide" unicode="&#59107;" d="M452.90557098 62.10916899999995L632.73802948 705.8908309999999h-60.87112427L391.26197052 62.10916899999995h61.64360047z"  horiz-adv-x="1024" />

    
    <glyph glyph-name="macro" unicode="&#58968;" d="M830.24 763.6800000000001H193.28c-33.6 0-60.96-27.36-60.96-60.96v-636.96c0-33.6 27.36-60.96 60.96-60.96h636.96c33.6 0 60.96 27.36 60.96 60.96V702.72c0 33.6-26.88 60.48-60.96 60.96z m0-698.4H193.28V702.72h636.96v-637.44zM250.88 361.91999999999996c12-12 31.2-12 42.72 0l118.56 119.04c12 12 12 31.2 0 42.72L294.08 644.16c-12.48 11.52-31.68 10.56-43.2-1.92-10.56-11.52-10.56-29.28-0.48-40.8l97.44-98.88-97.44-97.44c-11.52-12-11.52-31.2 0.48-43.2z m151.68 21.6c0-16.8 13.44-30.24 30.24-30.72h168.48c16.8 0 30.24 13.44 30.72 30.24 0 16.8-13.44 30.24-30.24 30.72H433.28c-17.28 0.48-30.72-13.44-30.72-30.24z"  horiz-adv-x="1024" />

    
    <glyph glyph-name="bold" unicode="&#61249;" d="M710.26894531 405.28535156c59.13105469 32.58457031 94.31894531 95.203125 94.31894532 168.21035156 0 84.78984375-46.14257813 154.03007813-120.63164063 183.12714844C640.56289062 774.21679688 597.86738281 777.75 543.04472656 777.75H216.6875c-15.53378906 0-28.125-12.59121094-28.125-28.125v-58.09394531c0-15.53378906 12.59121094-28.125 28.125-28.125h58.20644531v-559.91601563H216.6875c-15.53378906 0-28.125-12.59121094-28.125-28.125V18.375c0-15.53378906 12.59121094-28.125 28.125-28.125h343.98632813c42.54433594 0 78.80976562 2.26582031 117.53789062 13.33125C767.796875 30.34042968999995 835.4375 112.15957031000005 835.4375 218.74101561999998c0 91.7015625-46.71035156 161.16328125-125.16855469 186.54433594zM424.49082031 656.79667969h118.55390625c28.64179688 0 48.403125-3.54902344 65.96191407-11.80722657 27.82265625-14.90449219 43.78007812-46.58554687 43.78007812-86.91679687 0-61.57441406-35.71875-99.82617188-93.21503906-99.82617188h-135.08085938V656.79667969z m198.00351563-536.96777344c-17.82421875-7.1296875-39.86191406-8.62558594-55.21113281-8.62558594h-142.79238282V338.39707031h148.30136719c69.68847656 0 110.84238281-44.61328125 110.84238281-110.84238281 0.00175781-49.96582031-24.01171875-92.25527344-61.14023437-107.72578125z"  horiz-adv-x="1024" />

    
    <glyph glyph-name="italic" unicode="&#61484;" d="M590.67617187 102.75h-59.50019531l109.14609375 562.5h71.58691406a28.125 28.125 0 0 1 27.6046875 22.74082031l10.97226563 56.25C753.87324219 761.60625 740.57539063 777.75 722.88125 777.75H442.10058594a28.125 28.125 0 0 1-27.6046875-22.74082031l-10.97226563-56.25C400.13632812 681.39375 413.43417969 665.25 431.12832031 665.25h59.49492188l-109.14257813-562.5H312.09804688a28.125 28.125 0 0 1-27.6046875-22.73730469l-10.97753907-56.25C270.12851563 6.395507810000026 283.42636719-9.75 301.12226563-9.75h278.57636718a28.125 28.125 0 0 1 27.6046875 22.73730469l10.97753907 56.25c3.38730469 17.3671875-9.91054687 33.51269531-27.6046875 33.51269531z"  horiz-adv-x="1024" />

    
    <glyph glyph-name="underline" unicode="&#61731;" d="M512.40786743 179.69549559999996c-141.62424087 0-241.94417954 79.04748916-241.94417953 233.89343263V680.63085938H226.75543976c-13.65274429 0-24.71923828 11.06649399-24.71923828 24.71923828V754.78857422c0 13.65274429 11.06649399 24.71923828 24.71923829 24.71923828h212.26100921c13.65274429 0 24.71923828-11.06649399 24.71923828-24.71923828v-49.43847656c0-13.65274429-11.06649399-24.71923828-24.71923828-24.71923828h-44.51471329v-267.04193116c0-82.96239853 43.74378203-122.73719787 117.90613174-122.73719788 72.56023407 0 117.10121154 39.29431914 117.10121155 123.54211808V680.63085938h-43.70824814c-13.65274429 0-24.71923828 11.06649399-24.71923828 24.71923828V754.78857422c0 13.65274429 11.06649399 24.71923828 24.71923828 24.71923828h211.45454407c13.65274429 0 24.71923828-11.06649399 24.71923828-24.71923828v-49.43847656c0-13.65274429-11.06649399-24.71923828-24.71923828-24.71923828h-43.70824814v-267.04193116c0-153.57599258-100.23805618-233.89343261-241.13925934-233.89343262zM190.64990234 87.36914062000005h642.70019532c13.65274429 0 24.71923828-11.06649399 24.71923828-24.71923828v-49.43847656c0-13.65274429-11.06649399-24.71923828-24.71923828-24.71923828H190.64990234c-13.65274429 0-24.71923828 11.06649399-24.71923828 24.71923828v49.43847656c0 13.65274429 11.06649399 24.71923828 24.71923828 24.71923829z"  horiz-adv-x="1024" />

    
    <glyph glyph-name="bracket-right" unicode="&#59096;" d="M388.39787597 779.5078125c178.81896973-221.38549805 164.28405762-396.64489747 164.23461914-396.74377442 0-0.04943849 14.63378906-172.88635254-164.23461914-394.27185058h79.69482423S637.17229003 131.96264646999998 635.59025878 382.76403808C637.22172852 633.56542969 468.0927002 779.5078125 468.0927002 779.5078125H388.39787597z"  horiz-adv-x="1024" />

    
    <glyph glyph-name="bracket-left" unicode="&#59097;" d="M635.60212403 779.5078125C456.7831543 558.12231445 471.31806641 382.86291502999995 471.36750488 382.76403808c0-0.04943848-14.63378906-172.88635254 164.23461915-394.27185058H555.9072998S386.82770997 131.96264648 388.40974122 382.76403808C386.77827148 633.56542969 555.9072998 779.5078125 555.9072998 779.5078125H635.60212403z"  horiz-adv-x="1024" />

    
    <glyph glyph-name="input" unicode="&#59006;" d="M549.07885742 223.32495116999996h74.15771485v-49.43847656H400.76342773v49.43847656h74.15771485V544.6750488299999h-74.15771485v49.43847656h222.47314454v-49.43847656h-74.15771485zM774.02392578-11.5078125H249.97607422C177.05432128-11.5078125 116.4921875 49.054321279999954 116.4921875 121.97607421999999V646.02392578C116.4921875 718.9456787199999 177.05432128 779.5078125 249.97607422 779.5078125h522.81188965C846.94567872 779.5078125 907.5078125 718.9456787199999 907.5078125 646.02392578v-522.81188965c0-74.15771484-60.56213379-134.71984864-133.48388672-134.71984863zM249.97607422 730.06933594C204.24548339 730.06933594 165.93066406 691.75451661 165.93066406 646.02392578v-522.81188965c0-46.96655273 38.31481934-84.04541016 84.04541016-84.04541016h522.81188965c46.96655273 0 84.04541016 38.31481934 84.04541016 84.04541016V646.02392578c1.23596192 45.73059083-37.07885742 84.04541016-82.80944825 84.04541016H249.97607422z"  horiz-adv-x="1024" />

    
    <glyph glyph-name="select-code" unicode="&#59048;" d="M143.68334961 15.68334961000005V752.31665039H882.78857422V13.211425780000013c-2.47192383 2.47192383-739.10522461 2.47192383-739.10522461 2.47192383zM828.40625 700.40625H195.59375v-630.34057617h632.8125V700.40625zM512 218.38110352l-224.94506836 227.41699218L338.96533203 497.70849609l173.03466797-175.50659179 175.5065918 175.50659179 51.91040039-51.91040039z"  horiz-adv-x="1024" />

    
    <glyph glyph-name="function" unicode="&#58891;" d="M479.94738769 519.46142578l-52.32238769-206.81762695C403.23535156 214.75561523 379.34008789 143.97619627999995 356.18640136 100.22314453000001c-23.15368653-43.75305176-50.42724609-76.13525391-81.73828124-97.31140137-31.31103516-21.17614747-66.98913575-31.72302247-107.03430176-31.72302246-25.54321289 0-44.32983398 4.94384766-56.19506836 14.74914552C99.35351562-4.256835939999974 93.42089844 7.196411130000001 93.42089844 20.1328125c0 12.27722168 4.94384766 22.74169922 14.74914551 31.72302247 9.80529786 8.89892578 22.90649414 13.34838867 39.2211914 13.34838867 13.34838867 0 23.56567383-3.3782959 30.56945801-10.29968262 7.08618164-6.83898926 10.546875-15.49072266 10.546875-25.87280274 0-9.64050293-2.22473145-16.80908203-6.67419434-21.42333984-4.44946289-4.61425781-6.67419434-7.66296387-6.67419433-9.14611816l2.22473145-2.80151367c1.89514161-1.4831543 4.11987305-2.30712891 6.75659179-2.30712891 8.89892578 0 16.47949219 2.80151367 22.74169922 8.32214355 15.57312012 14.08996583 27.27355958 31.14624023 35.0189209 51.16882325 5.52062989 13.67797852 15.90270997 49.85046387 31.14624023 108.43505858l91.21398926 358.01696778h-62.29248047l14.99633789 52.3223877c22.24731445-0.41198731 38.47961426 2.38952637 48.61450195 8.32214355 10.21728516 5.93261719 20.84655762 19.28100586 32.05261231 40.04516601C430.59130859 680.7956543 465.28063964 724.30151367 501.61791992 750.66870117c36.33728028 26.3671875 76.95922852 39.55078125 121.78344727 39.55078125 28.59191895 0 49.27368164-5.52062989 62.29248047-16.72668457 13.01879883-11.12365723 19.44580078-25.54321289 19.44580078-43.34106445 0-15.16113281-4.28466797-27.35595703-12.77160645-36.41967773-8.56933594-9.14611817-19.28100586-13.59558106-32.29980468-13.59558106-11.86523438 0-21.67053223 3.70788575-29.49829102 11.12365723-7.74536133 7.41577148-11.70043945 16.31469727-11.70043945 26.69677734 0 7.41577148 2.55432129 15.24353028 7.49816894 23.64807129 4.94384766 8.32214356 7.49816895 14.00756836 7.49816895 16.97387695 0 3.29589844-1.071167 6.01501465-3.29589844 8.07495117-2.22473145 2.05993653-5.19104004 3.04870606-8.89892578 3.04870606-17.79785156 0-36.00769043-10.79406739-54.46472168-32.29980468-30.40466309-35.18371583-54.87670898-90.47241211-73.4161377-165.70129395h65.09399415L543.31103516 519.29663086h-63.36364747v0.16479492z m100.36010743-26.94396973l130.18798827 22.24731446c23.48327637-37.07885742 40.20996094-77.86560059 50.09765626-122.36022949 24.4720459 36.17248536 42.76428223 61.46850586 55.12390137 76.05285645 16.72668458 19.1986084 30.48706055 31.640625 41.19873046 37.57324217 10.79406739 5.85021973 22.24731445 8.81652833 34.27734375 8.81652833 13.9251709 0 24.4720459-3.70788575 31.72302247-11.12365723s10.87646484-17.46826172 10.87646484-30.15747071c0-12.0300293-3.62548828-21.83532715-10.87646484-29.41589355-7.25097656-7.58056641-16.47949219-11.37084961-27.60314942-11.37084961-7.99255372 0-17.13867188 1.4831543-27.35595703 4.4494629-10.21728516 2.96630859-17.3034668 4.44946289-21.34094238 4.44946289-10.546875 0-20.51696778-3.70788575-30.1574707-11.12365724-12.93640137-10.46447754-28.83911133-32.29980469-47.70812989-65.34118651 21.34094239-74.81689453 38.31481934-120.30029297 50.92163086-136.61499024 7.41577148-9.55810547 14.91394043-14.3371582 22.74169922-14.3371582 6.50939942 0 12.0300293 1.4831543 16.72668457 4.61425781 7.08618164 5.19104004 18.20983887 18.37463379 33.37097168 39.38598633l13.43078613-7.91015625c-21.91772461-35.51330567-43.42346192-60.39733887-64.35241699-74.56970215-15.73791504-11.45324708-31.39343262-17.13867188-46.80175781-17.13867187-16.06750489 0-29.33349609 3.54309083-39.8803711 10.71166992-10.546875 7.08618164-19.85778809 18.70422364-28.01513672 34.77172852-8.23974609 16.06750489-17.96264648 41.85791016-29.41589355 77.37121581-29.00390625-37.07885742-51.82800293-64.18762208-68.30749512-81.32629395-16.47949219-17.13867188-30.23986817-28.34472656-41.19873047-33.61816405-10.95886231-5.2734375-22.65930176-7.91015625-34.93652343-7.91015625-12.93640137 0-23.23608398 3.70788575-30.81665039 11.37084961-7.58056641 7.58056641-11.37084961 17.13867188-11.37084961 28.92150878 0 12.68920898 4.11987305 23.15368653 12.27722167 31.47583008 8.23974609 8.32214356 18.62182617 12.52441406 31.2286377 12.52441406 6.83898926 0 14.3371582-2.05993653 22.74169922-6.01501465 12.68920898-6.17980958 21.67053223-9.22851563 26.86157227-9.22851561 7.41577148 0 13.9251709 1.4831543 19.44580078 4.6142578 7.41577148 3.70788575 16.80908203 11.70043945 28.26232909 24.14245606 7.08618164 7.66296387 19.94018555 24.22485352 38.47961427 49.52087403-23.81286622 88.33007813-42.35229492 141.31164551-55.61828614 158.94470214-8.6517334 11.12365723-19.44580078 16.72668458-32.46459961 16.72668458-6.50939942 0-14.74914551-1.071167-24.55444336-3.21350099l2.80151367 14.08996583z"  horiz-adv-x="1024" />

    
    <glyph glyph-name="export" unicode="&#59008;" d="M878.08 405.504a25.6 25.6 0 0 1-25.6-25.6v-334.336a28.16 28.16 0 0 0-27.648-28.16H156.16a28.16 28.16 0 0 0-28.16 28.16V714.24A28.16 28.16 0 0 0 156.16 742.4h334.336a25.6 25.6 0 0 1 25.6 25.6 26.112 26.112 0 0 1-25.6 25.6H156.16A79.36 79.36 0 0 1 76.8 714.24v-668.672a79.36 79.36 0 0 1 79.36-79.36h668.672a79.36 79.36 0 0 1 78.848 79.36v334.336a25.6 25.6 0 0 1-25.6 25.6zM946.176 614.4a14.848 14.848 0 0 1 0 4.608 15.36 15.36 0 0 1 0 5.12 7.68 7.68 0 0 1 0 4.608 11.264 11.264 0 0 1-2.56 4.096 28.672 28.672 0 0 1-2.56 4.096L778.752 793.6a25.088 25.088 0 0 1-35.84 0 25.6 25.6 0 0 1 0-36.352l115.712-113.152H665.6a276.48 276.48 0 0 1-276.48-276.48v-31.232a25.6 25.6 0 0 1 25.6-25.6 26.112 26.112 0 0 1 25.6 25.6v31.232A225.28 225.28 0 0 0 665.6 593.408h191.488l-115.712-112.64a25.6 25.6 0 0 1 0-36.352 24.064 24.064 0 0 1 17.92-7.68 25.6 25.6 0 0 1 17.92 7.168l160.768 157.184a28.672 28.672 0 0 1 2.56 4.096 11.264 11.264 0 0 1 2.56 4.096 7.68 7.68 0 0 1 3.072 5.12z"  horiz-adv-x="1024" />

    
    <glyph glyph-name="macro2" unicode="&#58897;" d="M512 751.25758552A367.7094841 367.7094841 0 0 1 144.74241448 384c0-202.5 164.75758553-367.25758552 367.25758552-367.25758552S879.25758552 181.5 879.25758552 384 714.5 751.25758552 512 751.25758552z m0-678.01394462A311.09547615 311.09547615 0 0 0 201.2436409 384c0 171.36766433 139.38869476 310.7563591 310.7563591 310.7563591S822.7563591 555.36766433 822.7563591 384 683.36766433 73.24364089999995 512 73.24364089999995zM472.1101017 549.1530933399999a28.25022698 28.25022698 0 0 1-44.8615551-22.88306236v-299.96486665a28.25022698 28.25022698 0 0 1 44.8615551-22.82667159l206.22951507 150.01101493a28.25022698 28.25022698 0 0 1 1e-8 45.70896149L472.10932922 549.1530933399999z"  horiz-adv-x="1024" />

    
    <glyph glyph-name="bill" unicode="&#59287;" d="M561.43847656 151.63916015999996V37.930664060000026H294.47070312c-14.83154297 0-29.66308594 14.83154297-29.66308593 29.66308594V700.40625c0 14.83154297 14.83154297 29.66308594 29.66308594 29.66308594h435.05859374c14.83154297 0 29.66308594-14.83154297 29.66308594-29.66308594V235.68457031000003h-103.82080078c-49.43847656 0-93.93310547-39.55078125-93.93310547-84.04541015z m247.19238282 543.82324218c0 44.49462891-39.55078125 84.04541016-84.04541016 84.04541016H299.41455078C254.91992187 779.5078125 215.36914062 744.90087891 215.36914062 695.46240234v-622.92480468c0-49.43847656 39.55078125-84.04541016 84.04541016-84.04541016h291.68701172c4.94384766 0 54.38232422 39.55078125 158.203125 113.70849609 9.88769531 9.88769531 14.83154297 24.71923828 4.94384766 34.6069336-9.88769531 9.88769531-24.71923828 14.83154297-39.55078125 4.94384765l-98.87695313-74.15771484v84.04541016c0 14.83154297 19.77539063 29.66308594 39.55078125 29.66308593h133.48388672c14.83154297 0 24.71923828 9.88769531 24.71923828 24.71923829L808.63085938 695.46240234z m-163.14697266-143.37158203L467.50537109 364.22460937000005 378.51611328 458.15771484c-9.88769531 9.88769531-24.71923828 9.88769531-34.60693359 0s-4.94384766-24.71923828 0-34.60693359l103.82080078-103.82080078c4.94384766-4.94384766 9.88769531-4.94384766 14.83154297-4.94384766 4.94384766 0 9.88769531 0 14.83154297 4.94384766l197.75390625 197.75390625c9.88769531 9.88769531 9.88769531 24.71923828 0 34.60693359-4.94384766 4.94384766-19.77539063 4.94384766-29.66308594 0z"  horiz-adv-x="1024" />

    


  </font>
</defs>
</svg>
